<svg version="1.1" id="Layer_1" xmlns="http://www.w3.org/2000/svg" xmlns:xlink="http://www.w3.org/1999/xlink" x="0px" y="0px"
	 width="100%" viewBox="0 0 1184 381" enable-background="new 0 0 1184 381" xml:space="preserve">
<path fill="#000000" opacity="1.000000" stroke="none" 
	d="
M1185.000000,253.000000 
	C1185.000000,295.983459 1185.000000,338.966888 1185.000000,382.000000 
	C862.307495,382.000000 539.614990,382.000000 216.253601,381.631897 
	C216.094589,380.885651 216.550278,380.349304 217.122559,380.153076 
	C225.355118,377.330170 233.985260,375.346283 241.768326,371.599609 
	C257.950134,363.809937 271.002716,351.984589 281.033844,337.075745 
	C290.573792,322.896912 297.199158,307.548828 298.423645,289.947388 
	C298.820160,286.831635 298.844543,283.932617 298.937622,280.567230 
	C298.962616,240.731461 298.918854,201.362015 298.938843,161.536041 
	C298.957092,157.378723 298.911591,153.677963 298.927246,149.612717 
	C298.942810,148.513885 298.897156,147.779541 298.911987,146.608490 
	C298.276917,141.106735 297.581360,136.041702 296.960236,130.573914 
	C293.754700,121.072334 290.474731,111.973488 287.128052,102.664108 
	C287.061371,102.453583 286.947449,102.026863 286.970856,101.736282 
	C286.691132,101.220337 286.388000,100.994972 285.921600,100.465973 
	C281.191956,94.056587 276.625549,87.950836 272.052551,81.492599 
	C265.053955,75.355469 258.061951,69.570831 250.898605,63.490242 
	C249.453766,62.184910 248.180283,61.175522 246.922592,59.797173 
	C242.746353,52.914124 238.554321,46.400036 234.167435,39.609161 
	C232.309662,37.542717 230.646744,35.753063 228.981827,33.684612 
	C228.670685,33.228153 228.361542,33.050484 228.031342,32.902782 
	C228.010284,32.932747 228.070496,32.974457 228.030045,32.692657 
	C227.667389,32.250412 227.345184,32.089958 227.017242,31.960350 
	C227.011505,31.991194 227.072586,31.976910 227.032471,31.694252 
	C226.669403,31.250814 226.346466,31.090036 226.103790,30.962364 
	C226.184036,30.995474 226.258774,30.838745 226.092972,30.539358 
	C223.689758,28.459015 221.452347,26.678061 219.094849,24.647455 
	C218.654144,24.242283 218.333511,24.086761 218.083801,23.935524 
	C218.154724,23.939808 218.164581,23.798040 217.987289,23.504196 
	C214.926285,21.448563 212.042557,19.686773 209.002380,17.609650 
	C206.283279,15.810758 203.720673,14.327198 201.064682,12.605366 
	C200.670929,12.260490 200.370544,12.153888 199.849457,11.988859 
	C199.628754,11.930434 199.176819,11.865287 198.986847,11.549030 
	C195.575897,10.133350 192.354935,9.033928 188.947968,7.600880 
	C184.504395,6.231033 180.246811,5.194812 175.569214,4.096109 
	C172.474213,3.710339 169.089569,5.059522 168.000000,1.000000 
	C506.886261,1.000000 845.772522,1.000000 1185.000000,1.000000 
	C1185.000000,81.692177 1185.000000,162.384842 1184.599731,243.639053 
	C1182.906982,239.828842 1181.614502,235.457092 1180.346802,231.169220 
	C1166.048828,230.404449 1163.657227,228.991821 1162.904663,220.497406 
	C1163.020630,203.030151 1163.069824,186.024643 1163.579956,169.010956 
	C1170.281372,169.002777 1176.521729,169.002777 1182.998047,169.002777 
	C1182.998047,164.730576 1182.998047,161.251907 1182.998047,157.773239 
	C1182.998047,154.331955 1182.998047,150.890671 1182.998047,146.995636 
	C1177.315552,146.995636 1172.197510,146.894043 1167.086182,147.034134 
	C1164.069214,147.116821 1162.962646,145.932098 1162.997070,142.922043 
	C1163.080811,135.611725 1162.925659,128.298660 1162.704468,120.585663 
	C1153.715942,120.127487 1144.889526,120.039360 1136.063599,120.057213 
	C1135.094360,120.059174 1134.126587,120.669380 1133.098877,121.462120 
	C1133.074829,129.267151 1133.110107,136.607529 1133.066406,144.156006 
	C1132.987427,144.364120 1132.950073,144.807816 1132.686279,144.916962 
	C1132.208008,145.333374 1131.993652,145.640625 1131.569580,145.956818 
	C1131.359741,145.965729 1130.970703,146.123856 1130.508301,146.076965 
	C1126.111450,146.030075 1122.176758,146.030075 1117.987549,146.030075 
	C1117.987549,151.052612 1117.864014,155.528214 1118.030884,159.992950 
	C1118.141968,162.962662 1118.667725,165.916885 1119.464111,168.931000 
	C1123.601440,168.949860 1127.282593,168.915771 1131.160645,168.957458 
	C1131.357788,169.033249 1131.779053,169.063477 1131.892334,169.328003 
	C1132.320190,169.798630 1132.634644,170.004730 1132.968872,170.425446 
	C1132.988525,170.640045 1133.147217,171.040710 1133.094727,171.504364 
	C1133.022705,191.028687 1132.983643,210.089401 1133.025757,229.149948 
	C1133.028687,230.493073 1133.631226,231.834885 1133.955200,233.564117 
	C1135.468140,243.089096 1140.872192,249.599976 1149.197998,252.618164 
	C1160.884644,256.854645 1173.025269,256.326813 1185.000000,253.000000 
M440.616913,110.241623 
	C432.913696,110.169273 425.210236,110.035500 417.507507,110.070389 
	C415.718384,110.078491 413.931824,110.661331 411.996155,111.421188 
	C411.996155,111.421188 411.972382,111.886192 411.217316,112.343658 
	C411.141388,127.363747 411.091217,142.384079 410.948242,157.403519 
	C410.934479,158.849304 410.343964,160.289612 409.774353,161.106796 
	C406.327454,154.719437 401.549408,148.969162 394.576599,147.393784 
	C380.990387,144.324310 367.211151,143.181244 355.145874,152.848480 
	C346.108063,160.090012 340.539093,169.290131 338.289124,181.195816 
	C338.243378,182.445602 338.197662,183.695389 337.992523,185.360519 
	C337.992523,185.360519 337.946320,185.803009 337.202484,186.279984 
	C336.824585,190.669037 336.038666,195.070999 336.177002,199.443726 
	C336.332977,204.374817 337.320770,209.279587 337.991638,214.631927 
	C337.991638,214.631927 338.150299,215.040619 338.042999,215.762115 
	C338.083527,216.488083 338.124054,217.214035 338.037384,218.718582 
	C340.855957,229.093338 344.987335,238.656067 353.351776,245.997223 
	C365.937775,257.043457 387.268890,259.738861 400.713318,249.624405 
	C404.764862,246.576385 407.780396,242.151306 411.945679,237.623001 
	C411.945679,243.403763 411.945679,248.551651 411.945679,253.859894 
	C422.123505,253.859894 431.572968,253.859894 441.828735,253.545502 
	C441.887970,253.052002 441.998962,252.558502 441.999084,252.064987 
	C442.009857,206.188751 442.019470,160.312500 441.974579,114.436302 
	C441.973419,113.246674 441.370697,112.057632 441.041565,110.952805 
	C441.041565,110.952805 441.126160,110.958397 440.616913,110.241623 
M675.544250,146.192291 
	C665.793213,146.192291 656.042175,146.192291 646.284851,146.192291 
	C646.159302,147.063461 646.030884,147.539459 646.030701,148.015488 
	C646.017761,182.305832 646.007019,216.596191 646.052002,250.886475 
	C646.053284,251.874817 646.654419,252.862366 647.907898,253.983932 
	C656.947632,253.942596 665.987305,253.901245 675.528564,253.886719 
	C675.641296,253.601486 675.754028,253.316254 675.998474,252.097931 
	C675.955872,217.063065 675.913208,182.028183 675.544250,146.192291 
M1012.418457,168.807236 
	C1016.600159,168.832047 1020.781921,168.856857 1025.357056,169.033173 
	C1025.357056,169.033173 1025.777466,169.063156 1026.004028,169.593170 
	C1026.320190,169.797272 1026.636353,170.001358 1026.993408,170.632126 
	C1026.993408,170.632126 1027.137695,171.035690 1027.022705,171.961929 
	C1027.013916,197.940491 1026.990601,223.919067 1027.038452,249.897537 
	C1027.040894,251.220108 1027.657104,252.541534 1028.919434,253.986816 
	C1037.948975,253.948624 1046.978394,253.910416 1056.817383,253.560501 
	C1056.883057,251.742126 1057.002930,249.923828 1057.006226,248.105347 
	C1057.054321,221.740906 1057.086670,195.376450 1058.044678,169.011383 
	C1064.620361,169.011383 1071.196167,169.011383 1077.709351,169.011383 
	C1077.709351,161.287018 1077.709351,154.371490 1077.709351,146.998871 
	C1074.137573,146.998871 1070.850342,146.998886 1067.562988,146.998886 
	C1064.141113,146.998886 1060.719116,146.998871 1057.397583,146.998871 
	C1055.493652,129.870499 1061.250488,126.215546 1072.974243,128.335068 
	C1078.510254,129.335892 1079.027222,127.212585 1079.797729,123.443039 
	C1080.952637,117.792389 1082.162964,112.153053 1083.679199,104.941864 
	C1071.998413,104.941864 1061.408081,104.488487 1050.880371,105.103836 
	C1044.046265,105.503296 1038.320068,109.431610 1033.990234,114.713936 
	C1028.473022,121.444839 1026.644409,129.438187 1026.932983,138.067429 
	C1027.022583,140.742264 1026.310547,143.443909 1025.050049,146.014526 
	C1020.739746,146.342285 1016.429504,146.670059 1011.993042,147.927719 
	C1012.031311,154.620010 1012.069641,161.312286 1012.418457,168.807236 
M586.093384,163.507675 
	C585.270569,162.682480 584.381714,161.912689 583.635376,161.023300 
	C577.773376,154.037979 570.636719,148.557251 561.643005,147.070541 
	C549.444519,145.054077 537.152710,144.159348 524.861633,147.821289 
	C508.797729,152.607330 499.289673,163.605209 494.047577,178.820175 
	C490.161713,190.098694 490.166931,201.727997 491.930298,213.436020 
	C494.264099,228.931580 501.822449,241.378189 515.358521,248.990753 
	C532.956360,258.887573 551.833252,259.094940 569.848816,250.481155 
	C587.800720,241.897827 595.474731,225.720764 596.915405,206.540894 
	C598.055237,191.366257 595.480286,176.873077 586.093384,163.507675 
M928.226196,145.999069 
	C919.708435,146.018478 910.888428,144.625107 902.739502,146.368500 
	C888.353760,149.446228 877.441895,158.380554 870.998169,171.846481 
	C863.588501,187.331039 862.999573,203.670746 867.541382,219.915634 
	C872.214478,236.629669 882.802002,248.330338 899.857117,253.547577 
	C909.966309,256.640015 920.151306,256.697662 930.487732,255.060349 
	C943.471252,253.003723 953.591064,246.286362 961.074219,235.792191 
	C972.134460,220.281769 972.764709,202.880600 969.466125,184.871490 
	C967.137268,172.156570 960.856079,162.030289 950.734619,153.994827 
	C944.315796,148.898956 936.544373,148.075562 928.226196,145.999069 
M816.211853,166.512726 
	C811.983276,157.193008 804.906067,150.724625 795.198242,148.029587 
	C785.432251,145.318436 775.278992,145.485687 765.119202,145.871552 
	C755.740662,146.227768 747.332886,148.265839 739.412048,153.623672 
	C728.575500,160.953705 724.166809,176.952637 729.059082,189.466354 
	C733.321411,200.368805 742.456177,205.099594 752.729370,207.953430 
	C762.814087,210.754913 773.201538,212.456848 783.315735,215.165451 
	C789.507141,216.823532 792.291016,223.705536 788.651062,228.139206 
	C786.751221,230.453201 783.487915,232.032410 780.531860,233.020218 
	C772.633484,235.659561 757.412109,233.852539 754.663879,222.733826 
	C744.528564,222.733826 734.535645,222.733826 724.477661,222.733826 
	C726.351135,236.220352 733.397095,245.321381 744.886230,250.376877 
	C763.760254,258.681976 783.259094,259.083649 801.716675,249.895035 
	C818.891541,241.345001 823.984070,230.018036 819.839783,211.937927 
	C818.914368,207.900604 816.275757,203.619553 813.175781,200.850098 
	C806.803833,195.157669 798.687012,192.619171 790.329773,190.884506 
	C781.612305,189.075089 772.906982,187.134995 764.318054,184.803375 
	C758.100159,183.115417 754.193848,175.553711 760.058228,170.906296 
	C769.057678,163.774475 783.361633,163.895233 789.753967,175.469070 
	C790.591125,176.984756 792.682617,178.877975 794.117004,178.816620 
	C802.309143,178.466156 810.478271,177.576782 818.960449,176.844086 
	C818.174133,173.357834 817.467224,170.223770 816.211853,166.512726 
M650.344604,105.829163 
	C648.866211,107.813942 646.785645,109.589378 646.010620,111.818687 
	C642.030090,123.268875 650.112976,133.227951 662.270020,132.299194 
	C672.240295,131.537476 675.471069,127.190567 676.928345,121.399384 
	C678.857300,113.733650 675.658630,107.999664 670.774536,104.203842 
	C667.612793,101.746628 654.829163,102.697014 650.344604,105.829163 
z"/>
<path fill="#000000" opacity="1.000000" stroke="none" 
	d="
M1.000000,42.000000 
	C1.000000,28.405777 1.000000,14.811556 1.000000,1.000000 
	C14.686795,1.000000 28.374739,1.000000 42.852375,1.253253 
	C43.332268,1.896990 43.095840,2.396235 42.701897,2.661985 
	C33.842091,8.638712 33.052025,16.480970 40.332809,23.949543 
	C45.733578,29.489609 50.858791,35.298302 56.072563,41.266357 
	C56.347733,41.725403 56.657082,41.905434 56.978092,42.055153 
	C56.989750,42.024849 56.924999,42.019852 56.980797,42.294724 
	C57.352150,42.740112 57.667709,42.910629 57.987114,43.047043 
	C57.990959,43.012932 57.922340,43.010704 57.969994,43.277412 
	C58.304848,43.743038 58.592049,43.941956 59.007992,44.423542 
	C60.063469,45.515163 60.990204,46.324116 62.057373,47.438877 
	C66.774956,52.535416 71.352104,57.326145 76.067635,62.430328 
	C79.429710,65.514862 82.653404,68.285934 86.118744,71.424133 
	C88.181435,71.857201 90.002411,71.978477 91.823540,71.980934 
	C128.204849,72.030006 164.586151,72.065376 201.196259,72.451477 
	C204.002625,73.097473 206.635529,73.157715 209.146469,73.742020 
	C214.737320,75.043037 220.267181,76.606125 225.926315,78.324142 
	C226.351196,78.755157 226.671677,78.924423 226.968201,79.043190 
	C226.944275,78.992699 226.843399,79.040810 226.928680,79.312317 
	C227.337234,79.747314 227.660492,79.910805 227.974335,80.043579 
	C227.964905,80.012863 227.932266,80.068230 227.985153,80.407860 
	C228.313156,81.521278 228.588257,82.295074 228.911926,83.472870 
	C230.006363,94.255600 231.052231,104.634338 232.049591,115.460564 
	C232.041992,118.608589 232.082947,121.309128 232.069489,124.468597 
	C232.053085,128.954926 232.091049,132.982300 232.073410,137.464691 
	C232.058884,141.283493 232.099976,144.647263 232.082672,148.465607 
	C232.067368,152.284073 232.110474,155.647980 232.092224,159.440460 
	C232.068634,161.598358 232.106369,163.327667 232.083755,165.517731 
	C232.066940,188.635529 232.110458,211.292587 232.081360,234.385529 
	C231.675415,237.246063 231.259216,239.662643 231.022217,242.096664 
	C229.477295,257.963928 222.700699,271.731049 212.621170,283.579895 
	C197.909256,300.874329 178.615021,309.699921 155.498779,311.095947 
	C126.703766,311.068878 98.371681,311.101471 69.804443,311.060181 
	C69.569298,310.986267 69.076385,310.978455 69.017052,310.514771 
	C68.975685,294.008118 69.022041,277.965057 68.969398,261.922363 
	C68.963898,260.246460 68.372566,258.572479 68.027664,256.661591 
	C68.002289,256.425568 67.869270,255.969818 67.933632,255.507538 
	C67.946716,227.027069 67.895439,199.008850 67.900406,170.525055 
	C67.969749,144.657349 67.997734,119.255226 67.954475,93.853210 
	C67.952179,92.504372 67.347961,91.156563 67.021919,89.456375 
	C60.030308,81.347931 53.040741,73.591393 45.880737,65.534996 
	C41.476311,60.385147 37.597855,55.155384 32.921707,50.777687 
	C26.540602,44.803856 22.471886,34.676727 10.904160,37.055454 
	C8.831570,37.481651 6.874650,38.589191 4.942942,39.541595 
	C3.560624,40.223137 2.309604,41.170979 1.000000,42.000000 
M92.113152,91.963562 
	C86.876808,93.645592 84.242989,97.501678 84.069794,102.734665 
	C83.835480,109.813919 84.109833,116.910019 84.027130,124.927238 
	C84.073616,134.950104 84.120102,144.972961 84.027321,155.924667 
	C84.073479,168.615036 84.119644,181.305420 84.026505,194.924469 
	C84.072876,208.948807 84.119255,222.973145 84.028542,237.926270 
	C84.074432,250.950790 84.120323,263.975311 84.022339,277.770264 
	C84.907829,282.959076 87.078255,287.045410 93.324905,288.791687 
	C118.597061,288.876709 143.869202,288.969574 169.141434,289.004669 
	C169.824493,289.005615 170.508453,288.382111 171.985321,288.054382 
	C188.894592,285.471741 203.087784,268.973602 203.795517,252.642761 
	C203.863235,252.151093 203.990128,251.659424 203.990265,251.167740 
	C204.000610,211.615158 204.009094,172.062576 203.963470,132.510056 
	C203.962097,131.323975 203.386063,130.138550 203.023071,128.079529 
	C203.327255,118.479805 198.984848,110.779579 192.741470,103.117950 
	C191.825836,102.304497 190.963516,101.419701 189.985855,100.689293 
	C184.051620,96.255898 178.063324,91.920914 169.679535,91.211327 
	C144.759476,91.141273 119.839432,91.063515 94.919334,91.041466 
	C94.229622,91.040855 93.539391,91.638016 92.113152,91.963562 
z"/>
<path fill="#8068A9" opacity="1.000000" stroke="none" 
	d="
M298.051544,290.164124 
	C297.199158,307.548828 290.573792,322.896912 281.033844,337.075745 
	C271.002716,351.984589 257.950134,363.809937 241.768326,371.599609 
	C233.985260,375.346283 225.355118,377.330170 217.122559,380.153076 
	C216.550278,380.349304 216.094589,380.885651 215.792343,381.631897 
	C211.975449,382.000000 207.950912,382.000000 203.349716,381.910675 
	C202.481247,381.704346 202.223557,381.763885 202.000000,382.000000 
	C152.312439,382.000000 102.624878,382.000000 52.362320,381.900513 
	C51.497959,381.703033 51.235519,381.769379 51.000000,382.000000 
	C50.555553,382.000000 50.111111,382.000000 49.620110,381.701111 
	C47.377815,378.228485 44.460915,375.311584 43.210632,371.801117 
	C42.178905,368.904297 43.119339,365.305084 43.602501,362.016357 
	C52.709278,360.182922 62.383732,361.063110 68.882301,353.398438 
	C68.970970,354.809326 68.996895,355.839020 69.359062,357.110596 
	C71.319748,357.567596 72.944031,357.969269 74.568657,357.970673 
	C113.923965,358.005249 153.279327,358.008209 192.634613,357.960541 
	C194.410934,357.958405 196.186615,357.428314 198.405792,357.064636 
	C217.281036,356.205109 233.352219,349.069916 246.977432,337.200500 
	C263.861969,322.491760 272.295227,303.187073 274.342834,280.594849 
	C274.684204,278.087158 274.974823,275.943695 274.977600,273.799805 
	C275.019836,241.200516 275.024414,208.601166 275.383728,175.925507 
	C278.137329,174.425354 280.552429,173.013992 282.951050,171.575104 
	C288.263458,168.388290 293.567596,165.187622 298.875092,161.992584 
	C298.918854,201.362015 298.962616,240.731461 298.746338,280.918060 
	C298.341400,284.544861 298.196472,287.354492 298.051544,290.164124 
z"/>
<path fill="#77609D" opacity="1.000000" stroke="none" 
	d="
M1131.779053,169.063477 
	C1131.779053,169.063477 1131.357788,169.033249 1130.809570,168.758041 
	C1126.546143,168.275436 1122.831055,168.068039 1119.095825,167.401230 
	C1119.061401,161.824280 1119.158203,156.703156 1118.993774,151.590424 
	C1118.883179,148.151047 1120.340942,146.884384 1123.702148,146.932373 
	C1126.120605,146.966919 1128.547607,146.414474 1130.970703,146.123856 
	C1130.970703,146.123856 1131.359741,145.965729 1131.786377,145.789917 
	C1132.458740,145.345367 1132.704468,145.076599 1132.950073,144.807831 
	C1132.950073,144.807816 1132.987427,144.364120 1133.253418,143.794128 
	C1133.702393,135.847885 1133.885376,128.471603 1134.531982,121.067200 
	C1144.286133,121.021614 1153.576416,121.004158 1162.866821,120.986710 
	C1162.925659,128.298660 1163.080811,135.611725 1162.997070,142.922043 
	C1162.962646,145.932098 1164.069214,147.116821 1167.086182,147.034134 
	C1172.197510,146.894043 1177.315552,146.995636 1182.998047,146.995636 
	C1182.998047,150.890671 1182.998047,154.331955 1182.998047,157.773239 
	C1182.998047,161.251907 1182.998047,164.730576 1182.998047,169.002777 
	C1176.521729,169.002777 1170.281372,169.002777 1163.349731,169.354950 
	C1162.466919,170.332993 1162.109619,170.958374 1162.107788,171.584793 
	C1162.062866,187.099960 1162.041626,202.615265 1162.075806,218.130402 
	C1162.077881,219.073868 1162.572510,220.016251 1162.837891,220.959137 
	C1163.657227,228.991821 1166.048828,230.404449 1180.346802,231.169220 
	C1181.614502,235.457092 1182.906982,239.828842 1184.599731,244.100311 
	C1185.000000,246.700012 1185.000000,249.400024 1185.000000,252.550018 
	C1173.025269,256.326813 1160.884644,256.854645 1149.197998,252.618164 
	C1140.872192,249.599976 1135.468140,243.089096 1133.987915,233.084808 
	C1134.007935,213.938416 1134.022705,195.658035 1133.946777,177.378021 
	C1133.937988,175.264511 1133.425903,173.153091 1133.147217,171.040710 
	C1133.147217,171.040710 1132.988525,170.640045 1132.806152,170.203125 
	C1132.342163,169.531967 1132.060669,169.297729 1131.779053,169.063477 
z"/>
<path fill="#2C9AD4" opacity="1.000000" stroke="none" 
	d="
M56.106750,40.987335 
	C50.858791,35.298302 45.733578,29.489609 40.332809,23.949543 
	C33.052025,16.480970 33.842091,8.638712 42.701897,2.661985 
	C43.095840,2.396235 43.332268,1.896990 43.321033,1.253253 
	C44.066669,1.000000 45.133339,1.000000 46.936211,1.243707 
	C49.813633,1.662135 51.954414,1.982868 54.096153,1.989395 
	C80.736458,2.070584 107.376907,2.106112 133.920197,2.471591 
	C133.060989,3.627843 132.406281,4.607047 131.519684,5.281396 
	C124.951515,10.277242 118.126488,14.960709 111.807526,20.250443 
	C107.180267,24.124008 102.266487,25.479889 96.382423,25.081499 
	C90.951210,24.713768 85.474792,25.013630 79.833443,25.139561 
	C79.411469,25.435333 79.195564,25.634058 78.793388,25.926643 
	C78.585899,25.997446 78.152168,26.061781 78.038872,26.145935 
	C77.737427,26.474287 77.726547,26.731382 77.963371,27.213253 
	C78.033791,27.425133 78.134026,27.860291 78.228775,28.071381 
	C78.477867,28.553900 78.668617,28.796743 78.989456,29.272190 
	C79.404419,29.972424 79.725708,30.411469 80.010361,31.217924 
	C79.075211,32.885147 78.418785,34.488327 77.236130,35.432060 
	C72.214783,39.438984 67.037354,43.250301 61.916935,47.133068 
	C60.990204,46.324116 60.063469,45.515163 58.875229,44.215866 
	C58.408138,43.463188 58.177677,43.224918 57.922340,43.010704 
	C57.922340,43.010704 57.990959,43.012932 57.826302,42.855080 
	C57.416092,42.471439 57.170547,42.245644 56.924999,42.019852 
	C56.924999,42.019852 56.989750,42.024849 56.850800,41.859989 
	C56.538113,41.435291 56.336414,41.199360 56.106750,40.987335 
z"/>
<path fill="#000000" opacity="1.000000" stroke="none" 
	d="
M43.185848,362.017120 
	C43.119339,365.305084 42.178905,368.904297 43.210632,371.801117 
	C44.460915,375.311584 47.377815,378.228485 49.286781,381.701111 
	C33.070320,382.000000 17.140644,382.000000 1.000000,382.000000 
	C1.000000,364.979675 1.000000,347.958496 1.256458,330.163513 
	C3.940819,331.278656 6.368722,333.167633 9.043202,335.428802 
	C19.847425,335.822906 30.405069,335.844818 41.164246,335.943298 
	C41.365776,336.019897 41.795345,336.057220 41.906639,336.321045 
	C42.341652,336.761108 42.665375,336.937317 43.003532,337.561584 
	C43.069809,341.018707 43.121658,344.027832 43.122467,347.477753 
	C43.110420,350.285034 43.149414,352.651520 43.129807,355.452576 
	C43.109421,357.930450 43.147636,359.973785 43.185848,362.017120 
z"/>
<path fill="#2C9AD4" opacity="1.000000" stroke="none" 
	d="
M1.000000,42.468658 
	C2.309604,41.170979 3.560624,40.223137 4.942942,39.541595 
	C6.874650,38.589191 8.831570,37.481651 10.904160,37.055454 
	C22.471886,34.676727 26.540602,44.803856 32.921707,50.777687 
	C37.597855,55.155384 41.476311,60.385147 45.864273,65.923523 
	C43.267025,75.643524 35.119137,78.325111 27.549816,82.042503 
	C26.784218,82.356812 26.324602,82.676147 25.690918,83.330994 
	C25.347431,85.452148 25.178015,87.237778 24.646763,89.047302 
	C21.784281,90.620636 19.259960,92.133354 16.787874,93.727089 
	C11.510900,97.129135 6.260996,100.573174 1.000000,104.000000 
	C1.000000,83.645775 1.000000,63.291546 1.000000,42.468658 
z"/>
<path fill="#3792CE" opacity="1.000000" stroke="none" 
	d="
M80.018288,25.019457 
	C85.474792,25.013630 90.951210,24.713768 96.382423,25.081499 
	C102.266487,25.479889 107.180267,24.124008 111.807526,20.250443 
	C118.126488,14.960709 124.951515,10.277242 131.519684,5.281396 
	C132.406281,4.607047 133.060989,3.627843 134.385681,2.436389 
	C141.965515,1.721983 148.982758,1.360992 156.000000,1.000000 
	C159.692902,1.000000 163.385818,1.000000 167.539368,1.000000 
	C169.089569,5.059522 172.474213,3.710339 175.492889,4.430871 
	C172.329788,9.961741 168.894272,15.146212 165.284439,20.206335 
	C163.620789,22.538372 162.352142,24.666685 164.493866,27.068594 
	C156.471130,26.694635 148.903061,26.129240 141.330612,26.062801 
	C120.886642,25.883438 100.440804,25.916502 80.001465,25.653824 
	C80.007225,25.442373 80.018288,25.019457 80.018288,25.019457 
z"/>
<path fill="#458AC7" opacity="1.000000" stroke="none" 
	d="
M1.000000,199.000000 
	C1.000000,183.312439 1.000000,167.624878 1.335590,151.386444 
	C2.645269,150.224869 3.641958,149.647186 4.589821,148.998184 
	C11.395408,144.338455 18.191086,139.664246 24.992325,135.463882 
	C25.001596,144.296173 25.008448,152.659210 25.015423,161.488586 
	C25.007919,169.307556 25.000292,176.660187 24.631115,184.039215 
	C20.599760,186.451492 16.941336,188.855118 13.257110,191.218552 
	C9.183728,193.831573 5.086720,196.407761 1.000000,199.000000 
z"/>
<path fill="#3792CE" opacity="1.000000" stroke="none" 
	d="
M24.989904,134.994629 
	C18.191086,139.664246 11.395408,144.338455 4.589821,148.998184 
	C3.641958,149.647186 2.645269,150.224869 1.335590,150.917786 
	C1.000000,135.645767 1.000000,120.291542 1.000000,104.468658 
	C6.260996,100.573174 11.510900,97.129135 16.787874,93.727089 
	C19.259960,92.133354 21.784281,90.620636 24.649162,89.513275 
	C25.005566,104.968445 24.997734,119.981537 24.989904,134.994629 
z"/>
<path fill="#5283C0" opacity="1.000000" stroke="none" 
	d="
M1.000000,199.468658 
	C5.086720,196.407761 9.183728,193.831573 13.257110,191.218552 
	C16.941336,188.855118 20.599760,186.451492 24.634014,184.506409 
	C24.995501,197.628632 24.992535,210.310059 24.643650,223.067291 
	C20.683292,225.443085 17.066998,227.740173 13.454913,230.043854 
	C9.301338,232.692856 5.151481,235.347702 1.000003,238.000000 
	C1.000000,225.312439 1.000000,212.624878 1.000000,199.468658 
z"/>
<path fill="#6F72B2" opacity="1.000000" stroke="none" 
	d="
M8.796621,335.056610 
	C6.368722,333.167633 3.940819,331.278656 1.256458,329.694855 
	C1.000000,322.979034 1.000000,315.958099 1.344995,308.395691 
	C3.473102,306.723297 5.273927,305.619232 7.036126,304.456604 
	C13.320149,300.310669 19.591057,296.144897 25.932495,292.452423 
	C26.006763,297.903259 26.120180,302.891174 25.984533,307.872314 
	C25.904280,310.819275 26.922726,312.173157 30.005226,312.033722 
	C33.985153,311.853729 37.976234,311.920380 41.888977,312.219177 
	C35.132603,317.873047 28.346416,323.066315 21.829168,328.577667 
	C19.843853,330.256561 18.599297,332.811432 16.560551,334.976379 
	C13.669285,335.010620 11.232951,335.033630 8.796621,335.056610 
z"/>
<path fill="#6478B7" opacity="1.000000" stroke="none" 
	d="
M25.866922,291.986633 
	C19.591057,296.144897 13.320149,300.310669 7.036126,304.456604 
	C5.273927,305.619232 3.473102,306.723297 1.344995,307.927124 
	C1.000000,296.312439 1.000000,284.624878 1.345432,272.395630 
	C4.803049,269.727142 7.879996,267.546356 11.035563,265.485992 
	C15.951410,262.276306 20.920647,259.148407 25.933378,256.451965 
	C25.955307,268.607635 25.911116,280.297119 25.866922,291.986633 
z"/>
<path fill="#5A7EBC" opacity="1.000000" stroke="none" 
	d="
M25.867256,255.985840 
	C20.920647,259.148407 15.951410,262.276306 11.035563,265.485992 
	C7.879996,267.546356 4.803049,269.727142 1.345432,271.926971 
	C1.000000,260.979095 1.000000,249.958206 1.000003,238.468658 
	C5.151481,235.347702 9.301338,232.692856 13.454913,230.043854 
	C17.066998,227.740173 20.683292,225.443085 24.663992,223.384445 
	C25.308798,224.407852 25.587341,225.189911 25.932236,226.438263 
	C25.954811,236.598312 25.911034,246.292084 25.867256,255.985840 
z"/>
<path fill="#619ACF" opacity="1.000000" stroke="none" 
	d="
M155.531342,1.000000 
	C148.982758,1.360992 141.965515,1.721983 134.482788,2.118176 
	C107.376907,2.106112 80.736458,2.070584 54.096153,1.989395 
	C51.954414,1.982868 49.813633,1.662135 47.336205,1.243707 
	C83.020897,1.000000 119.041786,1.000000 155.531342,1.000000 
z"/>
<path fill="#8A74B2" opacity="1.000000" stroke="none" 
	d="
M51.250000,382.000000 
	C51.235519,381.769379 51.497959,381.703033 51.893661,381.900513 
	C52.000000,382.000000 51.500000,382.000000 51.250000,382.000000 
z"/>
<path fill="#8A74B2" opacity="1.000000" stroke="none" 
	d="
M202.250000,382.000000 
	C202.223557,381.763885 202.481247,381.704346 202.886536,381.910675 
	C203.000000,382.000000 202.500000,382.000000 202.250000,382.000000 
z"/>
<path fill="#78609E" opacity="1.000000" stroke="none" 
	d="
M441.022430,253.859894 
	C431.572968,253.859894 422.123505,253.859894 411.945679,253.859894 
	C411.945679,248.551651 411.945679,243.403763 411.945679,237.623001 
	C407.780396,242.151306 404.764862,246.576385 400.713318,249.624405 
	C387.268890,259.738861 365.937775,257.043457 353.351776,245.997223 
	C344.987335,238.656067 340.855957,229.093338 338.251465,218.109100 
	C338.360474,216.679947 338.255402,215.860275 338.150299,215.040619 
	C338.150299,215.040619 337.991638,214.631927 338.006683,213.933716 
	C337.996582,204.091324 337.971466,194.947174 337.946320,185.803009 
	C337.946320,185.803009 337.992523,185.360519 338.249756,184.845093 
	C338.655396,183.159958 338.803833,181.990250 338.952271,180.820541 
	C340.539093,169.290131 346.108063,160.090012 355.145874,152.848480 
	C367.211151,143.181244 380.990387,144.324310 394.576599,147.393784 
	C401.549408,148.969162 406.327454,154.719437 410.177856,161.564270 
	C411.080933,160.929321 412.011139,159.838531 412.015289,158.744232 
	C412.074371,143.125153 412.008301,127.505623 411.972412,111.886192 
	C411.972382,111.886192 411.996155,111.421188 412.529419,111.199600 
	C422.417206,110.971466 431.771667,110.964935 441.126160,110.958405 
	C441.126160,110.958397 441.041565,110.952805 441.021484,111.389008 
	C441.008423,159.170105 441.015411,206.514999 441.022430,253.859894 
M371.021515,217.452835 
	C371.713226,218.923294 372.228516,220.512253 373.124207,221.845718 
	C381.273132,233.977341 395.757141,236.069244 405.280212,222.914612 
	C413.978088,210.899887 413.796814,197.478836 409.266113,184.016037 
	C406.651154,176.245850 401.569885,170.321350 392.927734,169.107376 
	C385.207214,168.022842 377.985901,170.429947 373.884308,177.013840 
	C366.114838,189.485367 365.590729,203.056488 371.021515,217.452835 
z"/>
<path fill="#78619E" opacity="1.000000" stroke="none" 
	d="
M586.361206,163.758072 
	C595.480286,176.873077 598.055237,191.366257 596.915405,206.540894 
	C595.474731,225.720764 587.800720,241.897827 569.848816,250.481155 
	C551.833252,259.094940 532.956360,258.887573 515.358521,248.990753 
	C501.822449,241.378189 494.264099,228.931580 491.930298,213.436020 
	C490.166931,201.727997 490.161713,190.098694 494.047577,178.820175 
	C499.289673,163.605209 508.797729,152.607330 524.861633,147.821289 
	C537.152710,144.159348 549.444519,145.054077 561.643005,147.070541 
	C570.636719,148.557251 577.773376,154.037979 583.635376,161.023300 
	C584.381714,161.912689 585.270569,162.682480 586.361206,163.758072 
M550.474182,231.013077 
	C559.342896,228.313263 562.531738,220.847504 564.324097,213.043793 
	C567.755798,198.103027 567.753662,183.604218 555.293396,171.968491 
	C549.406982,166.471542 538.483215,166.737991 532.431580,172.127350 
	C526.601379,177.319504 523.403748,183.767288 522.450623,191.216095 
	C521.170654,201.219421 521.690186,211.067535 525.987976,220.567429 
	C528.569885,226.274673 533.032593,229.725403 538.397522,231.515915 
	C541.840271,232.664932 546.016846,231.615463 550.474182,231.013077 
z"/>
<path fill="#78619E" opacity="1.000000" stroke="none" 
	d="
M928.679199,145.998322 
	C936.544373,148.075562 944.315796,148.898956 950.734619,153.994827 
	C960.856079,162.030289 967.137268,172.156570 969.466125,184.871490 
	C972.764709,202.880600 972.134460,220.281769 961.074219,235.792191 
	C953.591064,246.286362 943.471252,253.003723 930.487732,255.060349 
	C920.151306,256.697662 909.966309,256.640015 899.857117,253.547577 
	C882.802002,248.330338 872.214478,236.629669 867.541382,219.915634 
	C862.999573,203.670746 863.588501,187.331039 870.998169,171.846481 
	C877.441895,158.380554 888.353760,149.446228 902.739502,146.368500 
	C910.888428,144.625107 919.708435,146.018478 928.679199,145.998322 
M939.996948,206.217224 
	C939.995605,202.217316 940.189636,198.205811 939.952942,194.219879 
	C939.429749,185.408539 936.582947,176.582336 929.625488,171.778168 
	C918.446289,164.058716 907.621155,166.682724 901.431519,178.036697 
	C893.840088,191.962097 892.799988,207.278442 901.140503,221.802353 
	C908.307983,234.283600 921.912842,236.942093 932.474487,225.918915 
	C937.507996,220.665543 938.806152,213.932388 939.996948,206.217224 
z"/>
<path fill="#79619E" opacity="1.000000" stroke="none" 
	d="
M816.486084,166.801208 
	C817.467224,170.223770 818.174133,173.357834 818.960449,176.844086 
	C810.478271,177.576782 802.309143,178.466156 794.117004,178.816620 
	C792.682617,178.877975 790.591125,176.984756 789.753967,175.469070 
	C783.361633,163.895233 769.057678,163.774475 760.058228,170.906296 
	C754.193848,175.553711 758.100159,183.115417 764.318054,184.803375 
	C772.906982,187.134995 781.612305,189.075089 790.329773,190.884506 
	C798.687012,192.619171 806.803833,195.157669 813.175781,200.850098 
	C816.275757,203.619553 818.914368,207.900604 819.839783,211.937927 
	C823.984070,230.018036 818.891541,241.345001 801.716675,249.895035 
	C783.259094,259.083649 763.760254,258.681976 744.886230,250.376877 
	C733.397095,245.321381 726.351135,236.220352 724.477661,222.733826 
	C734.535645,222.733826 744.528564,222.733826 754.663879,222.733826 
	C757.412109,233.852539 772.633484,235.659561 780.531860,233.020218 
	C783.487915,232.032410 786.751221,230.453201 788.651062,228.139206 
	C792.291016,223.705536 789.507141,216.823532 783.315735,215.165451 
	C773.201538,212.456848 762.814087,210.754913 752.729370,207.953430 
	C742.456177,205.099594 733.321411,200.368805 729.059082,189.466354 
	C724.166809,176.952637 728.575500,160.953705 739.412048,153.623672 
	C747.332886,148.265839 755.740662,146.227768 765.119202,145.871552 
	C775.278992,145.485687 785.432251,145.318436 795.198242,148.029587 
	C804.906067,150.724625 811.983276,157.193008 816.486084,166.801208 
z"/>
<path fill="#77609D" opacity="1.000000" stroke="none" 
	d="
M1056.007935,253.872223 
	C1046.978394,253.910416 1037.948975,253.948624 1028.458252,253.465302 
	C1027.998047,227.745605 1028.019531,202.547363 1027.962646,177.349304 
	C1027.957886,175.244156 1027.425171,173.140198 1027.137695,171.035690 
	C1027.137695,171.035690 1026.993408,170.632126 1026.810059,170.196426 
	C1026.343506,169.528198 1026.060547,169.295685 1025.777466,169.063156 
	C1025.777466,169.063156 1025.357056,169.033173 1024.807983,168.757721 
	C1020.208618,168.323029 1016.158264,168.163803 1012.107971,168.004578 
	C1012.069641,161.312286 1012.031311,154.620010 1012.510620,147.470917 
	C1017.340637,146.720505 1021.653137,146.426895 1025.965576,146.133286 
	C1026.310547,143.443909 1027.022583,140.742264 1026.932983,138.067429 
	C1026.644409,129.438187 1028.473022,121.444839 1033.990234,114.713936 
	C1038.320068,109.431610 1044.046265,105.503296 1050.880371,105.103836 
	C1061.408081,104.488487 1071.998413,104.941864 1083.679199,104.941864 
	C1082.162964,112.153053 1080.952637,117.792389 1079.797729,123.443039 
	C1079.027222,127.212585 1078.510254,129.335892 1072.974243,128.335068 
	C1061.250488,126.215546 1055.493652,129.870499 1057.397583,146.998871 
	C1060.719116,146.998871 1064.141113,146.998886 1067.562988,146.998886 
	C1070.850342,146.998886 1074.137573,146.998871 1077.709351,146.998871 
	C1077.709351,154.371490 1077.709351,161.287018 1077.709351,169.011383 
	C1071.196167,169.011383 1064.620361,169.011383 1057.347412,169.353500 
	C1056.426636,171.319977 1056.010498,172.944107 1056.008667,174.568726 
	C1055.977417,201.003189 1055.998657,227.437714 1056.007935,253.872223 
z"/>
<path fill="#77609D" opacity="1.000000" stroke="none" 
	d="
M675.027039,253.859894 
	C665.987305,253.901245 656.947632,253.942596 647.445923,253.458145 
	C646.984802,219.609650 647.053406,186.286621 646.906677,152.964569 
	C646.886780,148.443237 648.224976,146.716019 652.881348,146.905563 
	C660.532898,147.217010 668.206360,146.992081 675.870544,146.993317 
	C675.913208,182.028183 675.955872,217.063065 675.776733,252.685852 
	C675.356201,253.448624 675.180237,253.643982 675.027039,253.859894 
z"/>
<path fill="#5582BF" opacity="1.000000" stroke="none" 
	d="
M225.821899,78.062401 
	C220.267181,76.606125 214.737320,75.043037 209.146469,73.742020 
	C206.635529,73.157715 204.002625,73.097473 201.190125,72.185188 
	C200.958603,71.393394 200.961990,71.215836 201.149567,70.752274 
	C205.132538,67.366905 209.094635,64.443649 212.682602,61.116909 
	C216.037903,58.005867 221.400711,56.663223 222.346466,50.991100 
	C223.128418,50.946972 223.575165,50.919941 224.333069,51.078796 
	C232.065094,54.231834 239.485947,57.198986 246.906799,60.166138 
	C248.180283,61.175522 249.453766,62.184910 250.813202,63.838112 
	C249.865906,65.698364 249.029633,67.195061 247.765762,68.083336 
	C241.899719,72.206184 235.915115,76.160339 229.737137,80.141174 
	C229.501312,80.107468 229.035400,80.009018 228.759338,80.018547 
	C228.299591,80.041458 228.115936,80.054840 227.932266,80.068230 
	C227.932266,80.068230 227.964905,80.012863 227.806641,79.847633 
	C227.380035,79.468544 227.111725,79.254677 226.843399,79.040810 
	C226.843399,79.040810 226.944275,78.992699 226.788574,78.856491 
	C226.362549,78.500984 226.092224,78.281693 225.821899,78.062401 
z"/>
<path fill="#766DAD" opacity="1.000000" stroke="none" 
	d="
M298.938843,161.536041 
	C293.567596,165.187622 288.263458,168.388290 282.951050,171.575104 
	C280.552429,173.013992 278.137329,174.425354 275.373535,175.456726 
	C274.728271,166.393509 274.439117,157.722794 274.077545,148.663116 
	C273.726135,146.514938 273.447113,144.755707 273.537048,142.987640 
	C275.513947,142.285538 277.268341,141.812302 278.702454,140.857849 
	C283.058899,137.958420 287.194183,134.716888 291.629303,131.951202 
	C293.036713,131.073517 295.114655,131.271133 296.885803,130.976669 
	C297.581360,136.041702 298.276917,141.106735 298.754272,146.829102 
	C298.646088,148.316696 298.756073,149.146957 298.866058,149.977203 
	C298.911591,153.677963 298.957092,157.378723 298.938843,161.536041 
z"/>
<path fill="#79619E" opacity="1.000000" stroke="none" 
	d="
M650.664734,105.598038 
	C654.829163,102.697014 667.612793,101.746628 670.774536,104.203842 
	C675.658630,107.999664 678.857300,113.733650 676.928345,121.399384 
	C675.471069,127.190567 672.240295,131.537476 662.270020,132.299194 
	C650.112976,133.227951 642.030090,123.268875 646.010620,111.818687 
	C646.785645,109.589378 648.866211,107.813942 650.664734,105.598038 
z"/>
<path fill="#607CBA" opacity="1.000000" stroke="none" 
	d="
M229.972961,80.174889 
	C235.915115,76.160339 241.899719,72.206184 247.765762,68.083336 
	C249.029633,67.195061 249.865906,65.698364 250.984558,64.134056 
	C258.061951,69.570831 265.053955,75.355469 271.966003,81.836060 
	C270.828522,83.750084 269.930817,85.171638 268.685181,86.150383 
	C263.756348,90.023140 258.718536,93.757195 253.426132,97.362839 
	C245.411743,91.513626 237.692352,85.844254 229.972961,80.174889 
z"/>
<path fill="#6F72B2" opacity="1.000000" stroke="none" 
	d="
M296.960205,130.573914 
	C295.114655,131.271133 293.036713,131.073517 291.629303,131.951202 
	C287.194183,134.716888 283.058899,137.958420 278.702454,140.857849 
	C277.268341,141.812302 275.513947,142.285538 273.470337,142.552444 
	C270.711792,133.741684 268.388916,125.357292 266.430969,116.948822 
	C268.567139,116.141472 270.546844,115.642189 272.071625,114.523125 
	C277.200012,110.759277 282.166412,106.774734 287.194763,102.874634 
	C290.474731,111.973488 293.754700,121.072334 296.960205,130.573914 
z"/>
<path fill="#6478B7" opacity="1.000000" stroke="none" 
	d="
M287.128082,102.664108 
	C282.166412,106.774734 277.200012,110.759277 272.071625,114.523125 
	C270.546844,115.642189 268.567139,116.141472 266.291565,116.623436 
	C262.888580,112.591698 259.989929,108.861267 257.021240,104.766518 
	C255.874481,102.115692 254.797806,99.829185 253.721130,97.542679 
	C258.718536,93.757195 263.756348,90.023140 268.685181,86.150383 
	C269.930817,85.171638 270.828522,83.750084 271.972656,82.188545 
	C276.625549,87.950836 281.191956,94.056587 286.038269,100.692871 
	C286.527924,101.491226 286.737701,101.759048 286.947449,102.026863 
	C286.947449,102.026863 287.061371,102.453583 287.128082,102.664108 
z"/>
<path fill="#4476AB" opacity="1.000000" stroke="none" 
	d="
M201.158051,12.843639 
	C203.720673,14.327198 206.283279,15.810758 208.660019,17.701550 
	C203.637573,24.715696 198.800995,31.322607 193.616577,37.874489 
	C189.784729,35.907944 186.300735,33.996433 183.048828,31.820053 
	C187.321915,25.699377 191.286194,19.787689 195.473221,14.038217 
	C196.245712,12.977429 197.919205,12.572785 199.176819,11.865290 
	C199.176819,11.865287 199.628754,11.930434 200.005936,12.153445 
	C200.620255,12.567309 200.878555,12.723037 201.158051,12.843639 
z"/>
<path fill="#428CC8" opacity="1.000000" stroke="none" 
	d="
M164.946518,27.104710 
	C162.352142,24.666685 163.620789,22.538372 165.284439,20.206335 
	C168.894272,15.146212 172.329788,9.961741 175.912903,4.493352 
	C180.246811,5.194812 184.504395,6.231033 188.591095,7.653114 
	C181.328049,13.536892 176.324860,20.470943 173.492844,29.108566 
	C170.378128,28.398405 167.662323,27.751556 164.946518,27.104710 
z"/>
<path fill="#4C6292" opacity="1.000000" stroke="none" 
	d="
M219.214935,24.897102 
	C221.452347,26.678061 223.689758,28.459015 225.717957,30.606182 
	C222.233078,34.487461 218.924454,37.972546 215.692245,41.527126 
	C213.129868,44.345081 212.581604,47.159431 215.654510,49.813400 
	C212.111786,49.217869 208.976730,48.556747 205.809875,47.648544 
	C205.489136,47.000988 205.200180,46.600513 204.764587,45.985977 
	C204.385666,45.517338 204.153381,45.262768 203.955139,45.004974 
	C203.989182,45.001751 203.990082,45.070122 203.809937,44.886589 
	C203.375595,44.472569 203.121399,44.242073 202.889099,44.056679 
	C202.911011,44.101780 202.819672,44.143169 202.865540,43.754391 
	C205.516281,39.043747 207.834946,34.509441 210.828568,30.476131 
	C212.762512,27.870527 215.685074,25.998705 218.164581,23.798044 
	C218.164581,23.798040 218.154724,23.939808 218.267059,24.117792 
	C218.657913,24.496216 218.936432,24.696657 219.214935,24.897102 
z"/>
<path fill="#4181B8" opacity="1.000000" stroke="none" 
	d="
M173.891754,29.171879 
	C176.324860,20.470943 181.328049,13.536892 188.777084,7.986739 
	C192.354935,9.033928 195.575897,10.133350 198.986847,11.549032 
	C197.919205,12.572785 196.245712,12.977429 195.473221,14.038217 
	C191.286194,19.787689 187.321915,25.699377 182.669968,31.801041 
	C179.336609,31.088556 176.614182,30.130219 173.891754,29.171879 
z"/>
<path fill="#486C9E" opacity="1.000000" stroke="none" 
	d="
M217.987289,23.504200 
	C215.685074,25.998705 212.762512,27.870527 210.828568,30.476131 
	C207.834946,34.509441 205.516281,39.043747 202.571381,43.589745 
	C199.475693,41.852421 196.720062,39.890968 193.964417,37.929520 
	C198.800995,31.322607 203.637573,24.715696 208.816498,18.016884 
	C212.042557,19.686773 214.926285,21.448563 217.987289,23.504200 
z"/>
<path fill="#564A78" opacity="1.000000" stroke="none" 
	d="
M246.922592,59.797176 
	C239.485947,57.198986 232.065094,54.231834 224.360352,50.726387 
	C226.284561,45.535469 227.632782,40.024323 234.362289,39.885948 
	C238.554321,46.400036 242.746353,52.914124 246.922592,59.797176 
z"/>
<path fill="#595586" opacity="1.000000" stroke="none" 
	d="
M234.167435,39.609161 
	C227.632782,40.024323 226.284561,45.535469 224.049179,50.540497 
	C223.575165,50.919941 223.128418,50.946972 221.983154,50.878380 
	C219.543823,50.437775 217.803009,50.092796 216.062195,49.747818 
	C212.581604,47.159431 213.129868,44.345081 215.692245,41.527126 
	C218.924454,37.972546 222.233078,34.487461 225.883759,30.905569 
	C226.258774,30.838745 226.184036,30.995474 226.275482,31.141502 
	C226.603577,31.515863 226.838791,31.745655 227.072586,31.976910 
	C227.072586,31.976910 227.011505,31.991194 227.188431,32.138275 
	C227.599350,32.516140 227.834396,32.745838 228.070496,32.974457 
	C228.070496,32.974457 228.010284,32.932747 228.169205,33.097816 
	C228.510101,33.530632 228.728653,33.764145 228.983826,33.963409 
	C230.646744,35.753063 232.309662,37.542717 234.167435,39.609161 
z"/>
<path fill="#9F8EC1" opacity="1.000000" stroke="none" 
	d="
M441.425598,253.702698 
	C441.015411,206.514999 441.008423,159.170105 441.024994,111.346764 
	C441.370697,112.057632 441.973419,113.246674 441.974579,114.436302 
	C442.019470,160.312500 442.009857,206.188751 441.999084,252.064987 
	C441.998962,252.558502 441.887970,253.052002 441.425598,253.702698 
z"/>
<path fill="#907DB8" opacity="1.000000" stroke="none" 
	d="
M675.707397,146.592804 
	C668.206360,146.992081 660.532898,147.217010 652.881348,146.905563 
	C648.224976,146.716019 646.886780,148.443237 646.906677,152.964569 
	C647.053406,186.286621 646.984802,219.609650 646.979919,253.391327 
	C646.654419,252.862366 646.053284,251.874817 646.052002,250.886475 
	C646.007019,216.596191 646.017761,182.305832 646.030701,148.015488 
	C646.030884,147.539459 646.159302,147.063461 646.284851,146.192291 
	C656.042175,146.192291 665.793213,146.192291 675.707397,146.592804 
z"/>
<path fill="#907DB8" opacity="1.000000" stroke="none" 
	d="
M1056.412598,253.716370 
	C1055.998657,227.437714 1055.977417,201.003189 1056.008667,174.568726 
	C1056.010498,172.944107 1056.426636,171.319977 1056.886475,169.353806 
	C1057.086670,195.376450 1057.054321,221.740906 1057.006226,248.105347 
	C1057.002930,249.923828 1056.883057,251.742126 1056.412598,253.716370 
z"/>
<path fill="#8068AA" opacity="1.000000" stroke="none" 
	d="
M1027.080200,171.498810 
	C1027.425171,173.140198 1027.957886,175.244156 1027.962646,177.349304 
	C1028.019531,202.547363 1027.998047,227.745605 1027.992432,253.403656 
	C1027.657104,252.541534 1027.040894,251.220108 1027.038452,249.897537 
	C1026.990601,223.919067 1027.013916,197.940491 1027.080200,171.498810 
z"/>
<path fill="#8A74B2" opacity="1.000000" stroke="none" 
	d="
M1133.094727,171.504364 
	C1133.425903,173.153091 1133.937988,175.264511 1133.946777,177.378021 
	C1134.022705,195.658035 1134.007935,213.938416 1133.987549,232.697998 
	C1133.631226,231.834885 1133.028687,230.493073 1133.025757,229.149948 
	C1132.983643,210.089401 1133.022705,191.028687 1133.094727,171.504364 
z"/>
<path fill="#8068AA" opacity="1.000000" stroke="none" 
	d="
M1162.904785,220.497391 
	C1162.572510,220.016251 1162.077881,219.073868 1162.075806,218.130402 
	C1162.041626,202.615265 1162.062866,187.099960 1162.107788,171.584793 
	C1162.109619,170.958374 1162.466919,170.332993 1162.888794,169.363144 
	C1163.069824,186.024643 1163.020630,203.030151 1162.904785,220.497391 
z"/>
<path fill="#A0A3CE" opacity="1.000000" stroke="none" 
	d="
M411.594849,112.114929 
	C412.008301,127.505623 412.074371,143.125153 412.015289,158.744232 
	C412.011139,159.838531 411.080933,160.929321 410.301270,161.877106 
	C410.343964,160.289612 410.934479,158.849304 410.948242,157.403519 
	C411.091217,142.384079 411.141388,127.363747 411.594849,112.114929 
z"/>
<path fill="#907DB8" opacity="1.000000" stroke="none" 
	d="
M1130.508301,146.076965 
	C1128.547607,146.414474 1126.120605,146.966919 1123.702148,146.932373 
	C1120.340942,146.884384 1118.883179,148.151047 1118.993774,151.590424 
	C1119.158203,156.703156 1119.061401,161.824280 1119.066406,167.655899 
	C1119.040527,168.539322 1119.024170,168.708694 1119.007690,168.878052 
	C1118.667725,165.916885 1118.141968,162.962662 1118.030884,159.992950 
	C1117.864014,155.528214 1117.987549,151.052612 1117.987549,146.030075 
	C1122.176758,146.030075 1126.111450,146.030075 1130.508301,146.076965 
z"/>
<path fill="#8A74B2" opacity="1.000000" stroke="none" 
	d="
M337.574402,186.041504 
	C337.971466,194.947174 337.996582,204.091324 337.984253,213.715652 
	C337.320770,209.279587 336.332977,204.374817 336.177002,199.443726 
	C336.038666,195.070999 336.824585,190.669037 337.574402,186.041504 
z"/>
<path fill="#9F8EC1" opacity="1.000000" stroke="none" 
	d="
M1162.704468,120.585670 
	C1153.576416,121.004158 1144.286133,121.021614 1134.304688,121.038498 
	C1133.613647,121.037926 1133.158081,120.997475 1133.158081,120.997467 
	C1134.126587,120.669380 1135.094360,120.059174 1136.063599,120.057213 
	C1144.889526,120.039360 1153.715942,120.127487 1162.704468,120.585670 
z"/>
<path fill="#9F8EC1" opacity="1.000000" stroke="none" 
	d="
M440.871521,110.600014 
	C431.771667,110.964935 422.417206,110.971466 412.603394,110.978859 
	C413.931824,110.661331 415.718384,110.078491 417.507507,110.070389 
	C425.210236,110.035500 432.913696,110.169273 440.871521,110.600014 
z"/>
<path fill="#8A74B2" opacity="1.000000" stroke="none" 
	d="
M1133.098877,121.462128 
	C1133.158081,120.997475 1133.613647,121.037926 1133.841064,121.066635 
	C1133.885376,128.471603 1133.702393,135.847885 1133.332520,143.586029 
	C1133.110107,136.607529 1133.074829,129.267151 1133.098877,121.462128 
z"/>
<path fill="#8A74B2" opacity="1.000000" stroke="none" 
	d="
M1025.507812,146.073914 
	C1021.653137,146.426895 1017.340637,146.720505 1012.573730,147.005981 
	C1016.429504,146.670059 1020.739746,146.342285 1025.507812,146.073914 
z"/>
<path fill="#8A74B2" opacity="1.000000" stroke="none" 
	d="
M1012.263184,168.405899 
	C1016.158264,168.163803 1020.208618,168.323029 1024.611328,168.681961 
	C1020.781921,168.856857 1016.600159,168.832047 1012.263184,168.405899 
z"/>
<path fill="#8A74B2" opacity="1.000000" stroke="none" 
	d="
M1119.464111,168.931000 
	C1119.024170,168.708694 1119.040527,168.539322 1119.086426,168.115295 
	C1122.831055,168.068039 1126.546143,168.275436 1130.612427,168.682251 
	C1127.282593,168.915771 1123.601440,168.949860 1119.464111,168.931000 
z"/>
<path fill="#8A74B2" opacity="1.000000" stroke="none" 
	d="
M298.423645,289.947388 
	C298.196472,287.354492 298.341400,284.544861 298.677612,281.384399 
	C298.844543,283.932617 298.820160,286.831635 298.423645,289.947388 
z"/>
<path fill="#8A74B2" opacity="1.000000" stroke="none" 
	d="
M338.620728,181.008179 
	C338.803833,181.990250 338.655396,183.159958 338.329468,184.637421 
	C338.197662,183.695389 338.243378,182.445602 338.620728,181.008179 
z"/>
<path fill="#8A74B2" opacity="1.000000" stroke="none" 
	d="
M338.096649,215.401367 
	C338.255402,215.860275 338.360474,216.679947 338.315094,217.719803 
	C338.124054,217.214035 338.083527,216.488083 338.096649,215.401367 
z"/>
<path fill="#8A74B2" opacity="1.000000" stroke="none" 
	d="
M298.927246,149.612717 
	C298.756073,149.146957 298.646088,148.316696 298.693787,147.265823 
	C298.897156,147.779541 298.942810,148.513885 298.927246,149.612717 
z"/>
<path fill="#8A74B2" opacity="1.000000" stroke="none" 
	d="
M1025.890747,169.328156 
	C1026.060547,169.295685 1026.343506,169.528198 1026.789551,169.983093 
	C1026.636353,170.001358 1026.320190,169.797272 1025.890747,169.328156 
z"/>
<path fill="#8A74B2" opacity="1.000000" stroke="none" 
	d="
M1132.686279,144.916977 
	C1132.704468,145.076599 1132.458740,145.345367 1131.996216,145.781006 
	C1131.993652,145.640625 1132.208008,145.333374 1132.686279,144.916977 
z"/>
<path fill="#6F72B2" opacity="1.000000" stroke="none" 
	d="
M286.970856,101.736282 
	C286.737701,101.759048 286.527924,101.491226 286.201538,100.996506 
	C286.388000,100.994972 286.691132,101.220337 286.970856,101.736282 
z"/>
<path fill="#4C6292" opacity="1.000000" stroke="none" 
	d="
M228.030045,32.692657 
	C227.834396,32.745838 227.599350,32.516140 227.194168,32.107433 
	C227.345184,32.089958 227.667389,32.250412 228.030045,32.692657 
z"/>
<path fill="#4181B8" opacity="1.000000" stroke="none" 
	d="
M201.064682,12.605366 
	C200.878555,12.723037 200.620255,12.567309 200.226639,12.211870 
	C200.370544,12.153888 200.670929,12.260490 201.064682,12.605366 
z"/>
<path fill="#8A74B2" opacity="1.000000" stroke="none" 
	d="
M1131.892334,169.328003 
	C1132.060669,169.297729 1132.342163,169.531967 1132.786499,169.988525 
	C1132.634644,170.004730 1132.320190,169.798630 1131.892334,169.328003 
z"/>
<path fill="#486C9E" opacity="1.000000" stroke="none" 
	d="
M219.094849,24.647451 
	C218.936432,24.696657 218.657913,24.496216 218.196136,24.113506 
	C218.333511,24.086761 218.654144,24.242283 219.094849,24.647451 
z"/>
<path fill="#8068A9" opacity="1.000000" stroke="none" 
	d="
M675.277832,253.873306 
	C675.180237,253.643982 675.356201,253.448624 675.710938,253.152405 
	C675.754028,253.316254 675.641296,253.601486 675.277832,253.873306 
z"/>
<path fill="#4C6292" opacity="1.000000" stroke="none" 
	d="
M227.032471,31.694252 
	C226.838791,31.745655 226.603577,31.515863 226.195221,31.108395 
	C226.346466,31.090036 226.669403,31.250814 227.032471,31.694252 
z"/>
<path fill="#4C6292" opacity="1.000000" stroke="none" 
	d="
M228.981812,33.684616 
	C228.728653,33.764145 228.510101,33.530632 228.190262,33.067848 
	C228.361542,33.050484 228.670685,33.228153 228.981812,33.684616 
z"/>
<path fill="#8068AA" opacity="1.000000" stroke="none" 
	d="
M155.961685,311.155609 
	C178.615021,309.699921 197.909256,300.874329 212.621170,283.579895 
	C222.700699,271.731049 229.477295,257.963928 231.022217,242.096664 
	C231.259216,239.662643 231.675415,237.246063 232.267548,234.023041 
	C232.693329,222.818329 232.860260,212.411972 233.373795,201.929657 
	C236.244217,200.307983 238.752914,198.736893 241.295044,197.221893 
	C246.481369,194.131042 251.685684,191.070435 256.945557,188.462646 
	C256.959900,203.626923 256.911316,218.325912 256.686096,233.326187 
	C256.626465,235.410080 256.743439,237.192703 256.916199,239.410309 
	C256.226196,245.179428 255.967178,250.636856 254.652725,255.826996 
	C247.877686,282.578278 233.425766,304.185089 210.165466,319.309174 
	C196.842026,327.972229 182.449127,334.293823 165.703308,335.013336 
	C135.073242,334.986816 104.922691,334.974426 74.772331,335.046295 
	C72.847557,335.050873 70.924339,335.708893 69.047287,336.045105 
	C69.094185,336.027283 69.130089,336.120972 68.755341,336.125427 
	C67.881561,336.157837 67.382530,336.185760 66.451294,336.175262 
	C63.676853,336.073120 61.334629,336.009430 59.022888,335.588989 
	C60.755592,333.122559 62.188118,330.693085 64.222588,328.977325 
	C67.357697,326.333374 71.057335,324.364777 74.238533,321.767914 
	C77.982788,318.711426 81.429276,315.290131 85.472977,312.018066 
	C107.172440,312.004120 128.403885,312.022614 149.635086,311.957611 
	C151.744736,311.951172 153.852859,311.435120 155.961685,311.155609 
z"/>
<path fill="#8068AA" opacity="1.000000" stroke="none" 
	d="
M203.040771,253.092743 
	C203.087784,268.973602 188.894592,285.471741 171.108337,288.019104 
	C153.821335,287.962860 137.411346,287.941864 121.086838,287.592712 
	C126.085938,283.195557 131.002747,279.130463 135.912155,275.056458 
	C140.279770,271.432098 144.639206,267.797913 149.465820,264.100922 
	C154.076004,264.023468 158.222641,264.020294 162.369217,264.001404 
	C170.713715,263.963409 176.351562,259.285156 178.330902,250.649704 
	C178.681732,249.589508 178.864014,248.787445 179.378418,247.903320 
	C187.430328,242.545319 195.150101,237.269394 202.905151,232.461227 
	C202.973877,239.650253 203.007324,246.371490 203.040771,253.092743 
z"/>
<path fill="#4B87C4" opacity="1.000000" stroke="none" 
	d="
M84.166595,154.995819 
	C84.120102,144.972961 84.073616,134.950104 84.430557,124.383453 
	C86.135445,123.132980 87.539711,122.566315 88.722481,121.697960 
	C100.610634,112.970093 112.480667,104.217110 124.294685,95.389404 
	C125.409332,94.556526 126.107529,93.166298 127.467728,92.023903 
	C139.954300,92.022568 151.972229,92.032158 163.907257,92.372787 
	C159.669952,96.167786 155.523254,99.641022 151.359146,103.093254 
	C146.576797,107.058044 141.779037,111.004257 136.520752,114.969955 
	C127.372414,115.271263 118.691307,115.561165 109.794655,115.925201 
	C109.579117,115.999352 109.124100,116.027275 108.898911,116.373627 
	C108.441124,124.474281 108.208534,132.228577 107.614792,140.015381 
	C104.287689,141.772705 101.237808,143.369781 98.374641,145.251022 
	C93.575981,148.403946 88.896332,151.738007 84.166595,154.995819 
z"/>
<path fill="#617AB8" opacity="1.000000" stroke="none" 
	d="
M67.869270,255.969818 
	C67.869270,255.969818 68.002289,256.425568 67.999130,257.131592 
	C67.923653,262.238800 67.851318,266.639923 67.393394,270.936096 
	C59.059704,270.548615 51.111610,270.266174 43.103458,269.519501 
	C43.084187,257.369873 43.124973,245.684509 43.499611,233.919464 
	C46.707829,231.932831 49.555210,229.983597 52.462639,228.128479 
	C57.280804,225.054199 62.137627,222.040482 66.981865,219.469818 
	C66.990341,227.703644 66.899048,235.470612 67.038078,243.233459 
	C67.114174,247.482513 67.579475,251.724594 67.869270,255.969818 
z"/>
<path fill="#766DAD" opacity="1.000000" stroke="none" 
	d="
M149.002258,264.168091 
	C144.639206,267.797913 140.279770,271.432098 135.912155,275.056458 
	C131.002747,279.130463 126.085938,283.195557 120.618195,287.609436 
	C110.989929,287.985809 101.915794,288.017303 92.841667,288.048767 
	C87.078255,287.045410 84.907829,282.959076 84.445557,277.353271 
	C86.990929,275.725342 89.184570,274.622986 91.221558,273.282593 
	C96.845230,269.582031 102.403435,265.782013 108.115280,262.191620 
	C108.423660,262.582947 108.627556,262.779877 109.100037,263.320862 
	C122.564331,263.848694 135.783295,264.008392 149.002258,264.168091 
z"/>
<path fill="#766DAD" opacity="1.000000" stroke="none" 
	d="
M85.004883,312.027039 
	C81.429276,315.290131 77.982788,318.711426 74.238533,321.767914 
	C71.057335,324.364777 67.357697,326.333374 64.222588,328.977325 
	C62.188118,330.693085 60.755592,333.122559 58.558609,335.621277 
	C53.127319,336.021698 48.190784,336.033112 42.889359,336.029114 
	C42.281429,336.028198 42.038387,336.042694 41.795345,336.057220 
	C41.795345,336.057220 41.365776,336.019897 40.803680,335.750000 
	C32.499554,335.308441 24.757523,335.136810 17.015488,334.965149 
	C18.599297,332.811432 19.843853,330.256561 21.829168,328.577667 
	C28.346416,323.066315 35.132603,317.873047 41.960007,311.993256 
	C42.290054,311.152100 42.545284,310.976715 43.346817,310.920654 
	C51.907909,310.956573 59.992432,310.974640 68.326431,310.961975 
	C68.742729,310.946960 68.909554,310.962708 69.076385,310.978455 
	C69.076385,310.978455 69.569298,310.986267 70.163460,311.251953 
	C75.506706,311.687469 80.255798,311.857239 85.004883,312.027039 
z"/>
<path fill="#617AB8" opacity="1.000000" stroke="none" 
	d="
M84.165627,236.997482 
	C84.119255,222.973145 84.072876,208.948807 84.430603,194.380814 
	C87.464928,192.154907 90.098427,190.477768 92.724655,188.789291 
	C97.816055,185.515915 102.903343,182.236160 108.001450,179.430878 
	C108.028404,184.966782 108.046242,190.030838 108.069122,195.553802 
	C108.052856,204.689987 108.031555,213.367264 107.646973,222.064545 
	C104.060860,224.020798 100.779305,225.866745 97.629204,227.914886 
	C93.091248,230.865356 88.648819,233.962769 84.165627,236.997482 
z"/>
<path fill="#6C73B3" opacity="1.000000" stroke="none" 
	d="
M84.097084,237.461884 
	C88.648819,233.962769 93.091248,230.865356 97.629204,227.914886 
	C100.779305,225.866745 104.060860,224.020798 107.657089,222.528015 
	C108.016167,235.988098 108.001846,249.004700 107.987518,262.021301 
	C102.403435,265.782013 96.845230,269.582031 91.221558,273.282593 
	C89.184570,274.622986 86.990929,275.725342 84.517487,276.968079 
	C84.120323,263.975311 84.074432,250.950790 84.097084,237.461884 
z"/>
<path fill="#607CBA" opacity="1.000000" stroke="none" 
	d="
M193.066528,103.723572 
	C198.984848,110.779579 203.327255,118.479805 203.029724,128.982147 
	C202.982269,134.265457 202.928146,138.646149 202.539719,143.098022 
	C199.578659,144.833542 196.943527,146.484833 194.326950,148.164993 
	C189.225815,151.440552 184.135071,154.732269 179.009033,157.548386 
	C178.961563,155.274338 178.980453,153.468048 178.922440,151.664261 
	C178.681046,144.157318 178.416504,136.651138 178.077606,128.764648 
	C176.584045,125.606674 175.173340,122.828728 174.115295,119.967773 
	C178.955688,116.510414 183.556503,113.272980 187.880966,109.700958 
	C189.886765,108.044174 191.354736,105.736282 193.066528,103.723572 
z"/>
<path fill="#3792CE" opacity="1.000000" stroke="none" 
	d="
M85.877098,71.057022 
	C82.653404,68.285934 79.429710,65.514862 76.249573,62.140587 
	C77.652832,60.094036 78.892349,58.509094 80.394737,57.233845 
	C84.918777,53.393776 89.545151,49.674267 94.393433,46.003197 
	C95.086914,46.436264 95.518578,46.773872 96.313507,47.319817 
	C98.484604,47.691872 100.291481,47.984905 102.100410,47.998104 
	C113.065331,48.078087 124.030701,48.094215 134.964355,48.481972 
	C131.983871,51.536022 129.071320,54.280838 126.078003,56.934521 
	C120.748726,61.659096 115.370583,66.328537 109.543457,71.027084 
	C101.341728,71.041092 93.609413,71.049057 85.877098,71.057022 
z"/>
<path fill="#5582BF" opacity="1.000000" stroke="none" 
	d="
M107.992332,178.959061 
	C102.903343,182.236160 97.816055,185.515915 92.724655,188.789291 
	C90.098427,190.477768 87.464928,192.154907 84.500252,193.916473 
	C84.119644,181.305420 84.073479,168.615036 84.096954,155.460236 
	C88.896332,151.738007 93.575981,148.403946 98.374641,145.251022 
	C101.237808,143.369781 104.287689,141.772705 107.624550,140.485901 
	C107.994415,153.602310 107.993378,166.280685 107.992332,178.959061 
z"/>
<path fill="#766DAD" opacity="1.000000" stroke="none" 
	d="
M256.882568,187.997375 
	C251.685684,191.070435 246.481369,194.131042 241.295044,197.221893 
	C238.752914,198.736893 236.244217,200.307983 233.365097,201.460388 
	C233.003937,193.637192 233.096481,186.205414 232.955872,178.778046 
	C232.869202,174.200882 232.426788,169.630432 232.144104,165.056976 
	C232.106369,163.327667 232.068634,161.598358 232.527359,159.437439 
	C240.964157,157.674179 248.904495,156.342545 256.906342,155.462372 
	C256.928558,158.958740 256.889252,162.003647 256.665894,165.407196 
	C256.607880,170.167526 256.733948,174.569260 256.932190,179.418060 
	C256.963745,182.575882 256.923157,185.286621 256.882568,187.997375 
z"/>
<path fill="#5283C0" opacity="1.000000" stroke="none" 
	d="
M192.903992,103.420761 
	C191.354736,105.736282 189.886765,108.044174 187.880966,109.700958 
	C183.556503,113.272980 178.955688,116.510414 173.814087,119.815460 
	C170.764709,118.445465 168.369217,117.144783 165.608185,115.659668 
	C155.824417,115.303009 146.406204,115.130775 136.987976,114.958542 
	C141.779037,111.004257 146.576797,107.058044 151.359146,103.093254 
	C155.523254,99.641022 159.669952,96.167786 164.347488,92.361839 
	C166.632584,91.999977 168.394516,91.980110 170.156464,91.960243 
	C178.063324,91.920914 184.051620,96.255898 189.985855,100.689293 
	C190.963516,101.419701 191.825836,102.304497 192.903992,103.420761 
z"/>
<path fill="#3792CE" opacity="1.000000" stroke="none" 
	d="
M27.855799,82.047523 
	C35.119137,78.325111 43.267025,75.643524 46.034706,66.223373 
	C53.040741,73.591393 60.030308,81.347931 67.010590,89.892090 
	C67.006386,92.127731 67.011482,93.575768 66.652016,95.046371 
	C63.312687,96.779716 60.247681,98.352943 57.383415,100.232147 
	C52.576542,103.385872 47.897476,106.734390 43.097710,109.549667 
	C44.391674,101.247192 40.724316,95.648582 35.187298,90.624802 
	C32.424084,88.117722 30.279957,84.928299 27.855799,82.047523 
z"/>
<path fill="#458AC7" opacity="1.000000" stroke="none" 
	d="
M126.999077,92.034828 
	C126.107529,93.166298 125.409332,94.556526 124.294685,95.389404 
	C112.480667,104.217110 100.610634,112.970093 88.722481,121.697960 
	C87.539711,122.566315 86.135445,123.132980 84.499969,123.919281 
	C84.109833,116.910019 83.835480,109.813919 84.069794,102.734665 
	C84.242989,97.501678 86.876808,93.645592 92.959526,91.972923 
	C104.870293,91.999802 115.934685,92.017311 126.999077,92.034828 
z"/>
<path fill="#564A78" opacity="1.000000" stroke="none" 
	d="
M253.426117,97.362839 
	C254.797806,99.829185 255.874481,102.115692 257.005127,105.188156 
	C257.001892,107.655174 256.944672,109.336243 256.463623,111.011292 
	C248.059219,112.341209 240.078659,113.677139 232.098114,115.013069 
	C231.052231,104.634338 230.006363,94.255600 228.948486,83.091843 
	C228.969452,81.540886 229.002426,80.774956 229.035400,80.009018 
	C229.035400,80.009018 229.501312,80.107468 229.737137,80.141174 
	C237.692352,85.844254 245.411743,91.513626 253.426117,97.362839 
z"/>
<path fill="#3398D2" opacity="1.000000" stroke="none" 
	d="
M94.131615,45.907734 
	C89.545151,49.674267 84.918777,53.393776 80.394737,57.233845 
	C78.892349,58.509094 77.652832,60.094036 76.111191,61.827133 
	C71.352104,57.326145 66.774956,52.535416 62.057373,47.438877 
	C67.037354,43.250301 72.214783,39.438984 77.236130,35.432060 
	C78.418785,34.488327 79.075211,32.885147 80.318710,31.359718 
	C85.153008,36.058643 89.642311,40.983189 94.131615,45.907734 
z"/>
<path fill="#64598F" opacity="1.000000" stroke="none" 
	d="
M232.129028,137.009689 
	C232.091049,132.982300 232.053085,128.954926 232.506378,124.464607 
	C240.953735,122.670555 248.909836,121.339432 256.920715,120.468460 
	C256.937836,124.956032 256.900208,128.983444 256.440308,133.007843 
	C248.055008,134.339783 240.092010,135.674728 232.129028,137.009689 
z"/>
<path fill="#6E68A5" opacity="1.000000" stroke="none" 
	d="
M256.844818,155.010910 
	C248.904495,156.342545 240.964157,157.674179 232.588715,159.008850 
	C232.110474,155.647980 232.067368,152.284073 232.498291,148.458618 
	C240.932022,146.668274 248.891693,145.339508 256.910889,144.465195 
	C256.928528,148.283401 256.886688,151.647156 256.844818,155.010910 
z"/>
<path fill="#69619A" opacity="1.000000" stroke="none" 
	d="
M256.851379,144.010742 
	C248.891693,145.339508 240.932022,146.668274 232.556702,148.004059 
	C232.099976,144.647263 232.058884,141.283493 232.073395,137.464691 
	C240.092010,135.674728 248.055008,134.339783 256.497009,133.462616 
	C256.934448,137.283859 256.892914,140.647293 256.851379,144.010742 
z"/>
<path fill="#595586" opacity="1.000000" stroke="none" 
	d="
M256.865936,120.008301 
	C248.909836,121.339432 240.953735,122.670555 232.560760,124.005669 
	C232.082947,121.309128 232.041992,118.608589 232.049591,115.460564 
	C240.078659,113.677139 248.059219,112.341209 256.513306,111.458244 
	C256.946533,114.610245 256.906219,117.309273 256.865936,120.008301 
z"/>
<path fill="#A0A3CE" opacity="1.000000" stroke="none" 
	d="
M202.874023,143.026840 
	C202.928146,138.646149 202.982269,134.265457 203.057175,129.418793 
	C203.386063,130.138550 203.962097,131.323975 203.963470,132.510056 
	C204.009094,172.062576 204.000610,211.615158 203.990265,251.167740 
	C203.990128,251.659424 203.863235,252.151093 203.418152,252.867752 
	C203.007324,246.371490 202.973877,239.650253 202.943665,231.994308 
	C202.918015,223.705902 202.889145,216.352188 202.900696,208.531204 
	C202.913651,198.379623 202.886185,188.695312 202.893555,178.542831 
	C202.910263,166.392059 202.892151,154.709442 202.874023,143.026840 
z"/>
<path fill="#619ACF" opacity="1.000000" stroke="none" 
	d="
M86.118744,71.424133 
	C93.609413,71.049057 101.341728,71.041092 110.010696,71.033096 
	C126.298019,71.025658 141.648682,71.018250 157.468033,71.016220 
	C172.279602,71.027153 186.622498,71.032707 200.965393,71.038269 
	C200.961990,71.215836 200.958603,71.393394 200.961334,71.837234 
	C164.586151,72.065376 128.204849,72.030006 91.823540,71.980934 
	C90.002411,71.978477 88.181435,71.857201 86.118744,71.424133 
z"/>
<path fill="#907DB8" opacity="1.000000" stroke="none" 
	d="
M85.472977,312.018036 
	C80.255798,311.857239 75.506706,311.687469 70.398605,311.325867 
	C98.371681,311.101471 126.703766,311.068878 155.498779,311.095947 
	C153.852859,311.435120 151.744736,311.951172 149.635086,311.957611 
	C128.403885,312.022614 107.172440,312.004120 85.472977,312.018036 
z"/>
<path fill="#607CBA" opacity="1.000000" stroke="none" 
	d="
M67.933632,255.507538 
	C67.579475,251.724594 67.114174,247.482513 67.038078,243.233459 
	C66.899048,235.470612 66.990341,227.703644 66.987335,219.000977 
	C66.987953,209.378922 66.986809,200.694260 66.990303,191.540070 
	C67.000046,184.387863 67.005157,177.705200 67.218811,171.016266 
	C67.427345,171.010010 67.844162,170.990646 67.844162,170.990646 
	C67.895439,199.008850 67.946716,227.027069 67.933632,255.507538 
z"/>
<path fill="#619ACF" opacity="1.000000" stroke="none" 
	d="
M67.900406,170.525055 
	C67.844162,170.990646 67.427345,171.010010 67.221664,170.559433 
	C67.011246,167.071045 67.006500,164.033234 67.006813,160.527252 
	C67.010315,149.709274 67.008751,139.359451 67.012383,128.540390 
	C67.017235,117.055367 67.016907,106.039589 67.016579,95.023804 
	C67.011482,93.575768 67.006386,92.127731 67.012634,90.243988 
	C67.347961,91.156563 67.952179,92.504372 67.954475,93.853210 
	C67.997734,119.255226 67.969749,144.657349 67.900406,170.525055 
z"/>
<path fill="#907DB8" opacity="1.000000" stroke="none" 
	d="
M93.083282,288.420227 
	C101.915794,288.017303 110.989929,287.985809 120.532700,287.937622 
	C137.411346,287.941864 153.821335,287.962860 170.711670,288.016815 
	C170.508453,288.382111 169.824493,289.005615 169.141434,289.004669 
	C143.869202,288.969574 118.597061,288.876709 93.083282,288.420227 
z"/>
<path fill="#619ACF" opacity="1.000000" stroke="none" 
	d="
M127.467728,92.023903 
	C115.934685,92.017311 104.870293,91.999802 93.327652,91.969360 
	C93.539391,91.638016 94.229622,91.040855 94.919334,91.041466 
	C119.839432,91.063515 144.759476,91.141273 169.917999,91.585785 
	C168.394516,91.980110 166.632584,91.999977 164.430389,92.030792 
	C151.972229,92.032158 139.954300,92.022568 127.467728,92.023903 
z"/>
<path fill="#907DB8" opacity="1.000000" stroke="none" 
	d="
M232.083755,165.517731 
	C232.426788,169.630432 232.869202,174.200882 232.955872,178.778046 
	C233.096481,186.205414 233.003937,193.637192 233.018509,201.536377 
	C232.860260,212.411972 232.693329,222.818329 232.340179,233.587158 
	C232.110458,211.292587 232.066940,188.635529 232.083755,165.517731 
z"/>
<path fill="#A0A3CE" opacity="1.000000" stroke="none" 
	d="
M69.017052,310.514771 
	C68.909554,310.962708 68.742729,310.946960 68.321167,310.504883 
	C67.970985,306.727448 67.875526,303.376434 67.854523,299.585083 
	C67.880066,296.769073 67.831161,294.393341 67.846527,291.567688 
	C67.862770,288.106293 67.814728,285.094879 67.827408,281.624268 
	C67.851746,277.790405 67.815369,274.415741 67.778992,271.041077 
	C67.851318,266.639923 67.923653,262.238800 68.024506,257.367615 
	C68.372566,258.572479 68.963898,260.246460 68.969398,261.922363 
	C69.022041,277.965057 68.975685,294.008118 69.017052,310.514771 
z"/>
<path fill="#607CBA" opacity="1.000000" stroke="none" 
	d="
M228.759338,80.018547 
	C229.002426,80.774956 228.969452,81.540886 228.899933,82.687843 
	C228.588257,82.295074 228.313156,81.521278 227.985153,80.407860 
	C228.115936,80.054840 228.299591,80.041458 228.759338,80.018547 
z"/>
<path fill="#607CBA" opacity="1.000000" stroke="none" 
	d="
M225.926315,78.324142 
	C226.092224,78.281693 226.362549,78.500984 226.812500,78.906982 
	C226.671677,78.924423 226.351196,78.755157 225.926315,78.324142 
z"/>
<path fill="#607CBA" opacity="1.000000" stroke="none" 
	d="
M226.928680,79.312317 
	C227.111725,79.254677 227.380035,79.468544 227.816055,79.878349 
	C227.660492,79.910805 227.337234,79.747314 226.928680,79.312317 
z"/>
<path fill="#3398D2" opacity="1.000000" stroke="none" 
	d="
M57.969994,43.277412 
	C58.177677,43.224918 58.408138,43.463188 58.746483,43.933197 
	C58.592049,43.941956 58.304848,43.743038 57.969994,43.277412 
z"/>
<path fill="#3398D2" opacity="1.000000" stroke="none" 
	d="
M56.980797,42.294724 
	C57.170547,42.245644 57.416092,42.471439 57.822453,42.889191 
	C57.667709,42.910629 57.352150,42.740112 56.980797,42.294724 
z"/>
<path fill="#3398D2" opacity="1.000000" stroke="none" 
	d="
M56.072563,41.266357 
	C56.336414,41.199360 56.538113,41.435291 56.839142,41.890297 
	C56.657082,41.905434 56.347733,41.725403 56.072563,41.266357 
z"/>
<path fill="#000000" opacity="1.000000" stroke="none" 
	d="
M256.920715,120.468460 
	C256.906219,117.309273 256.946533,114.610245 256.937134,111.464264 
	C256.944672,109.336243 257.001892,107.655174 257.075195,105.552475 
	C259.989929,108.861267 262.888580,112.591698 265.926605,116.647514 
	C268.388916,125.357292 270.711792,133.741684 273.101379,142.561279 
	C273.447113,144.755707 273.726135,146.514938 274.016754,149.124283 
	C274.018524,158.473877 273.990906,166.973389 274.001953,175.472839 
	C274.047668,210.634857 274.105103,245.796875 274.158203,280.958893 
	C272.295227,303.187073 263.861969,322.491760 246.977432,337.200500 
	C233.352219,349.069916 217.281036,356.205109 197.941803,357.009644 
	C192.551514,357.022400 188.068466,357.005066 183.585403,356.999786 
	C145.397873,356.954865 107.210350,356.912140 69.022820,356.868713 
	C68.996895,355.839020 68.970970,354.809326 68.954346,352.952820 
	C68.911919,349.424561 68.860176,346.723114 68.882645,343.586670 
	C69.014595,340.808136 69.072342,338.464539 69.130089,336.120972 
	C69.130089,336.120972 69.094185,336.027283 69.516296,336.019135 
	C100.507462,336.018280 131.076538,336.039642 161.645508,335.990967 
	C163.158463,335.988556 164.670425,335.375580 166.182846,335.046875 
	C182.449127,334.293823 196.842026,327.972229 210.165466,319.309174 
	C233.425766,304.185089 247.877686,282.578278 254.652725,255.826996 
	C255.967178,250.636856 256.226196,245.179428 256.986511,238.989639 
	C256.954895,236.430954 256.908813,234.727936 256.862732,233.024902 
	C256.911316,218.325912 256.959900,203.626923 256.945526,188.462646 
	C256.923157,185.286621 256.963745,182.575882 256.991394,178.958740 
	C256.935608,173.717773 256.892761,169.383163 256.849915,165.048569 
	C256.889252,162.003647 256.928558,158.958740 256.906342,155.462372 
	C256.886688,151.647156 256.928528,148.283401 256.910889,144.465179 
	C256.892914,140.647293 256.934448,137.283859 256.919281,133.465637 
	C256.900208,128.983444 256.937836,124.956032 256.920715,120.468460 
z"/>
<path fill="#77609D" opacity="1.000000" stroke="none" 
	d="
M68.808441,344.021667 
	C68.860176,346.723114 68.911919,349.424561 68.891602,352.571655 
	C62.383732,361.063110 52.709278,360.182922 43.602501,362.016357 
	C43.147636,359.973785 43.109421,357.930450 43.509899,355.419067 
	C47.811989,354.007111 51.673382,353.054871 55.539276,352.121246 
	C60.832523,350.842926 66.731049,350.565002 68.808441,344.021667 
z"/>
<path fill="#907DB8" opacity="1.000000" stroke="none" 
	d="
M274.342834,280.594849 
	C274.105103,245.796875 274.047668,210.634857 274.001953,175.472839 
	C273.990906,166.973389 274.018524,158.473877 274.089142,149.513229 
	C274.439117,157.722794 274.728271,166.393509 275.027588,175.533035 
	C275.024414,208.601166 275.019836,241.200516 274.977600,273.799805 
	C274.974823,275.943695 274.684204,278.087158 274.342834,280.594849 
z"/>
<path fill="#9F8EC1" opacity="1.000000" stroke="none" 
	d="
M69.359062,357.110565 
	C107.210350,356.912140 145.397873,356.954865 183.585403,356.999786 
	C188.068466,357.005066 192.551514,357.022400 197.498581,357.089111 
	C196.186615,357.428314 194.410934,357.958405 192.634613,357.960541 
	C153.279327,358.008209 113.923965,358.005249 74.568657,357.970673 
	C72.944031,357.969269 71.319748,357.567596 69.359062,357.110565 
z"/>
<path fill="#000000" opacity="1.000000" stroke="none" 
	d="
M94.393433,46.003197 
	C89.642311,40.983189 85.153008,36.058643 80.355347,30.992306 
	C79.725708,30.411469 79.404419,29.972424 79.030304,29.003948 
	C78.696320,28.269775 78.415176,28.065033 78.134026,27.860291 
	C78.134026,27.860291 78.033791,27.425133 78.036484,26.980793 
	C78.039177,26.536455 78.152168,26.061781 78.152168,26.061781 
	C78.152168,26.061781 78.585899,25.997446 79.041626,25.983528 
	C79.663475,25.934832 79.829597,25.900053 79.995712,25.865276 
	C100.440804,25.916502 120.886642,25.883438 141.330612,26.062801 
	C148.903061,26.129240 156.471130,26.694635 164.493866,27.068594 
	C167.662323,27.751556 170.378128,28.398405 173.492844,29.108566 
	C176.614182,30.130219 179.336609,31.088556 182.437897,32.065907 
	C186.300735,33.996433 189.784729,35.907944 193.616577,37.874489 
	C196.720062,39.890968 199.475693,41.852421 202.525513,43.978523 
	C202.819672,44.143169 202.911011,44.101780 202.967163,44.332134 
	C203.345566,44.731701 203.667831,44.900913 203.990082,45.070122 
	C203.990082,45.070122 203.989182,45.001751 203.998108,45.285419 
	C204.308426,45.779408 204.609818,45.989727 204.911209,46.200043 
	C205.200180,46.600513 205.489136,47.000988 205.422241,47.675682 
	C203.769638,47.955509 202.472855,47.961121 200.938049,47.588696 
	C165.783417,47.177597 130.866821,47.144539 95.950233,47.111477 
	C95.518578,46.773872 95.086914,46.436264 94.393433,46.003197 
z"/>
<path fill="#3398D2" opacity="1.000000" stroke="none" 
	d="
M80.001465,25.653824 
	C79.829597,25.900053 79.663475,25.934832 79.249115,25.912725 
	C79.195564,25.634058 79.411469,25.435333 79.833443,25.139561 
	C80.018288,25.019457 80.007225,25.442373 80.001465,25.653824 
z"/>
<path fill="#3398D2" opacity="1.000000" stroke="none" 
	d="
M78.038872,26.145935 
	C78.152168,26.061781 78.039177,26.536455 77.966064,26.768913 
	C77.726547,26.731382 77.737427,26.474287 78.038872,26.145935 
z"/>
<path fill="#3398D2" opacity="1.000000" stroke="none" 
	d="
M78.228775,28.071381 
	C78.415176,28.065033 78.696320,28.269775 78.936615,28.742760 
	C78.668617,28.796743 78.477867,28.553900 78.228775,28.071381 
z"/>
<path fill="#64598F" opacity="1.000000" stroke="none" 
	d="
M68.882645,343.586670 
	C66.731049,350.565002 60.832523,350.842926 55.539276,352.121246 
	C51.673382,353.054871 47.811989,354.007111 43.568497,354.984497 
	C43.149414,352.651520 43.110420,350.285034 43.511547,347.435425 
	C50.023224,345.464844 56.045830,343.710205 62.183868,342.585571 
	C66.155159,341.857910 67.614670,340.037109 66.883507,336.213715 
	C67.382530,336.185760 67.881561,336.157837 68.755341,336.125427 
	C69.072342,338.464539 69.014595,340.808136 68.882645,343.586670 
z"/>
<path fill="#564A78" opacity="1.000000" stroke="none" 
	d="
M66.451294,336.175262 
	C67.614670,340.037109 66.155159,341.857910 62.183868,342.585571 
	C56.045830,343.710205 50.023224,345.464844 43.562588,346.994629 
	C43.121658,344.027832 43.069809,341.018707 43.073017,337.295105 
	C43.170132,336.401917 43.212193,336.223206 43.254250,336.044525 
	C48.190784,336.033112 53.127319,336.021698 58.528130,335.978027 
	C61.334629,336.009430 63.676853,336.073120 66.451294,336.175262 
z"/>
<path fill="#907DB8" opacity="1.000000" stroke="none" 
	d="
M16.560555,334.976379 
	C24.757523,335.136810 32.499554,335.308441 40.602150,335.673401 
	C30.405069,335.844818 19.847425,335.822906 9.043200,335.428802 
	C11.232951,335.033630 13.669285,335.010620 16.560555,334.976379 
z"/>
<path fill="#907DB8" opacity="1.000000" stroke="none" 
	d="
M42.889359,336.029114 
	C43.212193,336.223206 43.170132,336.401917 43.058586,336.847107 
	C42.665375,336.937317 42.341652,336.761108 41.906639,336.321045 
	C42.038387,336.042694 42.281429,336.028198 42.889359,336.029114 
z"/>
<path fill="#000000" opacity="1.000000" stroke="none" 
	d="
M27.549816,82.042503 
	C30.279957,84.928299 32.424084,88.117722 35.187298,90.624802 
	C40.724316,95.648582 44.391674,101.247192 43.026947,110.013275 
	C43.070374,121.952827 43.117641,132.977493 43.094955,144.465790 
	C43.071903,155.619461 43.118801,166.309509 43.096298,177.463684 
	C43.073524,187.618713 43.120148,197.309601 43.097397,207.464569 
	C43.073936,216.618805 43.119850,225.308975 43.165764,233.999130 
	C43.124973,245.684509 43.084187,257.369873 43.030418,269.976318 
	C43.066246,274.601105 43.115051,278.304840 43.092056,282.455566 
	C43.068695,285.927765 43.117138,288.952972 43.099800,292.419434 
	C43.077888,295.234741 43.121758,297.608856 43.100601,300.436218 
	C42.980469,304.227295 42.925362,307.565063 42.870255,310.902832 
	C42.545284,310.976715 42.290054,311.152100 42.033539,311.654907 
	C37.976234,311.920380 33.985153,311.853729 30.005226,312.033722 
	C26.922726,312.173157 25.904280,310.819275 25.984533,307.872314 
	C26.120180,302.891174 26.006763,297.903259 25.932499,292.452423 
	C25.911116,280.297119 25.955307,268.607635 25.933376,256.451965 
	C25.911034,246.292084 25.954811,236.598312 25.996799,225.975861 
	C25.952438,203.694138 25.909863,182.341095 25.930134,160.523880 
	C25.950315,134.371628 25.907652,108.683548 25.864986,82.995476 
	C26.324602,82.676147 26.784218,82.356812 27.549816,82.042503 
z"/>
<path fill="#428CC8" opacity="1.000000" stroke="none" 
	d="
M25.690918,83.330994 
	C25.907652,108.683548 25.950315,134.371628 25.717146,160.532715 
	C25.441313,161.005753 25.015299,161.022247 25.015299,161.022247 
	C25.008448,152.659210 25.001596,144.296173 24.992325,135.463882 
	C24.997734,119.981537 25.005566,104.968445 25.010998,89.489380 
	C25.178015,87.237778 25.347431,85.452148 25.690918,83.330994 
z"/>
<path fill="#5582BF" opacity="1.000000" stroke="none" 
	d="
M25.015423,161.488586 
	C25.015299,161.022247 25.441313,161.005753 25.654301,160.996918 
	C25.909863,182.341095 25.952438,203.694138 25.930449,225.509567 
	C25.587341,225.189911 25.308798,224.407852 25.009914,223.308640 
	C24.992535,210.310059 24.995501,197.628632 24.995565,184.480011 
	C25.000292,176.660187 25.007919,169.307556 25.015423,161.488586 
z"/>
<path fill="#000000" opacity="1.000000" stroke="none" 
	d="
M370.772766,217.150894 
	C365.590729,203.056488 366.114838,189.485367 373.884308,177.013840 
	C377.985901,170.429947 385.207214,168.022842 392.927734,169.107376 
	C401.569885,170.321350 406.651154,176.245850 409.266113,184.016037 
	C413.796814,197.478836 413.978088,210.899887 405.280212,222.914612 
	C395.757141,236.069244 381.273132,233.977341 373.124207,221.845718 
	C372.228516,220.512253 371.713226,218.923294 370.772766,217.150894 
z"/>
<path fill="#000000" opacity="1.000000" stroke="none" 
	d="
M550.169312,231.282288 
	C546.016846,231.615463 541.840271,232.664932 538.397522,231.515915 
	C533.032593,229.725403 528.569885,226.274673 525.987976,220.567429 
	C521.690186,211.067535 521.170654,201.219421 522.450623,191.216095 
	C523.403748,183.767288 526.601379,177.319504 532.431580,172.127350 
	C538.483215,166.737991 549.406982,166.471542 555.293396,171.968491 
	C567.753662,183.604218 567.755798,198.103027 564.324097,213.043793 
	C562.531738,220.847504 559.342896,228.313263 550.169312,231.282288 
z"/>
<path fill="#000000" opacity="1.000000" stroke="none" 
	d="
M939.994873,206.682037 
	C938.806152,213.932388 937.507996,220.665543 932.474487,225.918915 
	C921.912842,236.942093 908.307983,234.283600 901.140503,221.802353 
	C892.799988,207.278442 893.840088,191.962097 901.431519,178.036697 
	C907.621155,166.682724 918.446289,164.058716 929.625488,171.778168 
	C936.582947,176.582336 939.429749,185.408539 939.952942,194.219879 
	C940.189636,198.205811 939.995605,202.217316 939.994873,206.682037 
z"/>
<path fill="#4B87C4" opacity="1.000000" stroke="none" 
	d="
M201.176086,47.966732 
	C202.472855,47.961121 203.769638,47.955509 205.454041,47.922764 
	C208.976730,48.556747 212.111786,49.217869 215.654510,49.813400 
	C217.803009,50.092796 219.543823,50.437775 221.647949,50.895477 
	C221.400711,56.663223 216.037903,58.005867 212.682602,61.116909 
	C209.094635,64.443649 205.132538,67.366905 201.149567,70.752274 
	C186.622498,71.032707 172.279602,71.027153 157.548828,70.681747 
	C158.816559,68.533165 160.290146,66.504799 162.160294,64.954979 
	C169.031952,59.260342 176.035248,53.724552 183.457687,48.103413 
	C189.676285,48.040806 195.426178,48.003769 201.176086,47.966732 
z"/>
<path fill="#486C9E" opacity="1.000000" stroke="none" 
	d="
M203.809937,44.886593 
	C203.667831,44.900913 203.345566,44.731701 202.945251,44.287033 
	C203.121399,44.242073 203.375595,44.472569 203.809937,44.886593 
z"/>
<path fill="#486C9E" opacity="1.000000" stroke="none" 
	d="
M204.764587,45.985977 
	C204.609818,45.989727 204.308426,45.779408 203.964050,45.288643 
	C204.153381,45.262768 204.385666,45.517338 204.764587,45.985977 
z"/>
<path fill="#907DB8" opacity="1.000000" stroke="none" 
	d="
M165.703308,335.013367 
	C164.670425,335.375580 163.158463,335.988556 161.645508,335.990967 
	C131.076538,336.039642 100.507462,336.018280 69.469406,336.036926 
	C70.924339,335.708893 72.847557,335.050873 74.772331,335.046295 
	C104.922691,334.974426 135.073242,334.986816 165.703308,335.013367 
z"/>
<path fill="#8A74B2" opacity="1.000000" stroke="none" 
	d="
M256.686127,233.326187 
	C256.908813,234.727936 256.954895,236.430954 256.930664,238.554657 
	C256.743439,237.192703 256.626465,235.410080 256.686127,233.326187 
z"/>
<path fill="#000000" opacity="1.000000" stroke="none" 
	d="
M165.973709,115.844101 
	C168.369217,117.144783 170.764709,118.445465 173.461426,119.898468 
	C175.173340,122.828728 176.584045,125.606674 178.022034,129.217026 
	C178.086975,170.335571 178.124649,210.621704 178.162323,250.907852 
	C176.351562,259.285156 170.713715,263.963409 162.369217,264.001404 
	C158.222641,264.020294 154.076004,264.023468 149.465820,264.100922 
	C135.783295,264.008392 122.564331,263.848694 109.159195,262.859314 
	C108.924187,239.709808 108.875351,217.389999 108.891449,194.601089 
	C109.012283,168.097076 109.068192,142.062180 109.124100,116.027275 
	C109.124100,116.027275 109.579117,115.999352 110.260162,115.987228 
	C129.285385,115.931435 147.629547,115.887764 165.973709,115.844101 
z"/>
<path fill="#766DAD" opacity="1.000000" stroke="none" 
	d="
M202.860275,208.998474 
	C202.889145,216.352188 202.918015,223.705902 202.908386,231.526535 
	C195.150101,237.269394 187.430328,242.545319 179.347504,247.437103 
	C179.009567,239.033569 179.034714,231.014191 179.418060,222.965652 
	C182.760193,221.219696 185.779007,219.560303 188.720139,217.773087 
	C193.460449,214.892548 198.149551,211.927704 202.860275,208.998474 
z"/>
<path fill="#A0A3CE" opacity="1.000000" stroke="none" 
	d="
M179.059845,222.994827 
	C179.034714,231.014191 179.009567,239.033569 179.015366,247.519165 
	C178.864014,248.787445 178.681732,249.589508 178.330902,250.649704 
	C178.124649,210.621704 178.086975,170.335571 178.104858,129.597046 
	C178.416504,136.651138 178.681046,144.157318 178.922440,151.664261 
	C178.980453,153.468048 178.961563,155.274338 178.977921,158.014343 
	C179.002548,170.632797 179.027283,182.316391 179.019135,194.467804 
	C179.010773,204.288712 179.035309,213.641769 179.059845,222.994827 
z"/>
<path fill="#619ACF" opacity="1.000000" stroke="none" 
	d="
M108.898911,116.373627 
	C109.068192,142.062180 109.012283,168.097076 108.700668,194.601807 
	C108.444946,195.071625 108.064087,195.094910 108.064087,195.094910 
	C108.046242,190.030838 108.028404,184.966782 108.001450,179.430878 
	C107.993378,166.280685 107.994415,153.602310 107.985703,140.453400 
	C108.208534,132.228577 108.441124,124.474281 108.898911,116.373627 
z"/>
<path fill="#619ACF" opacity="1.000000" stroke="none" 
	d="
M165.608185,115.659668 
	C147.629547,115.887764 129.285385,115.931435 110.475708,115.913086 
	C118.691307,115.561165 127.372414,115.271263 136.520752,114.969955 
	C146.406204,115.130775 155.824417,115.303009 165.608185,115.659668 
z"/>
<path fill="#5A7EBC" opacity="1.000000" stroke="none" 
	d="
M43.499611,233.919464 
	C43.119850,225.308975 43.073936,216.618805 43.446480,207.433289 
	C49.006958,203.364395 54.096146,199.711136 59.314384,196.252594 
	C61.742340,194.643417 64.420769,193.412155 66.985657,192.009598 
	C66.986809,200.694260 66.987953,209.378922 66.983627,218.532410 
	C62.137627,222.040482 57.280804,225.054199 52.462639,228.128479 
	C49.555210,229.983597 46.707829,231.932831 43.499611,233.919464 
z"/>
<path fill="#5D6DA7" opacity="1.000000" stroke="none" 
	d="
M43.163857,282.008606 
	C43.115051,278.304840 43.066246,274.601105 43.090477,270.440552 
	C51.111610,270.266174 59.059704,270.548615 67.393394,270.936096 
	C67.815369,274.415741 67.851746,277.790405 67.378372,281.609497 
	C58.967030,282.038818 51.065441,282.023712 43.163857,282.008606 
z"/>
<path fill="#907DB8" opacity="1.000000" stroke="none" 
	d="
M108.069122,195.553802 
	C108.064087,195.094910 108.444946,195.071625 108.635727,195.070923 
	C108.875351,217.389999 108.924187,239.709808 108.913864,262.491150 
	C108.627556,262.779877 108.423660,262.582947 108.115280,262.191620 
	C108.001846,249.004700 108.016167,235.988098 108.020370,222.508026 
	C108.031555,213.367264 108.052856,204.689987 108.069122,195.553802 
z"/>
<path fill="#564A78" opacity="1.000000" stroke="none" 
	d="
M43.346817,310.920654 
	C42.925362,307.565063 42.980469,304.227295 43.558212,300.440308 
	C51.980587,300.002502 59.880322,300.013947 67.780060,300.025391 
	C67.875526,303.376434 67.970985,306.727448 68.071701,310.535583 
	C59.992432,310.974640 51.907909,310.956573 43.346817,310.920654 
z"/>
<path fill="#6974B5" opacity="1.000000" stroke="none" 
	d="
M179.052032,193.999969 
	C179.027283,182.316391 179.002548,170.632797 179.008911,158.483261 
	C184.135071,154.732269 189.225815,151.440552 194.326950,148.164993 
	C196.943527,146.484833 199.578659,144.833542 202.539703,143.098022 
	C202.892151,154.709442 202.910263,166.392059 202.561279,178.619141 
	C199.573639,180.827560 196.946152,182.480682 194.334091,184.157791 
	C189.235519,187.431412 184.145554,190.718475 179.052032,193.999969 
z"/>
<path fill="#428CC8" opacity="1.000000" stroke="none" 
	d="
M182.988998,48.128983 
	C176.035248,53.724552 169.031952,59.260342 162.160294,64.954979 
	C160.290146,66.504799 158.816559,68.533165 157.080170,70.676361 
	C141.648682,71.018250 126.298019,71.025658 110.480118,71.027054 
	C115.370583,66.328537 120.748726,61.659096 126.078003,56.934521 
	C129.071320,54.280838 131.983871,51.536022 135.432739,48.453091 
	C151.618103,48.092274 167.303558,48.110626 182.988998,48.128983 
z"/>
<path fill="#619ACF" opacity="1.000000" stroke="none" 
	d="
M183.457687,48.103413 
	C167.303558,48.110626 151.618103,48.092274 135.464294,48.102798 
	C124.030701,48.094215 113.065331,48.078087 102.100410,47.998104 
	C100.291481,47.984905 98.484604,47.691872 96.313507,47.319817 
	C130.866821,47.144539 165.783417,47.177597 200.938049,47.588696 
	C195.426178,48.003769 189.676285,48.040806 183.457687,48.103413 
z"/>
<path fill="#8A74B2" opacity="1.000000" stroke="none" 
	d="
M256.665863,165.407196 
	C256.892761,169.383163 256.935608,173.717773 256.919250,178.511673 
	C256.733948,174.569260 256.607880,170.167526 256.665863,165.407196 
z"/>
<path fill="#428CC8" opacity="1.000000" stroke="none" 
	d="
M43.164909,144.002167 
	C43.117641,132.977493 43.070374,121.952827 43.093872,110.464554 
	C47.897476,106.734390 52.576542,103.385872 57.383415,100.232147 
	C60.247681,98.352943 63.312687,96.779716 66.652016,95.046371 
	C67.016907,106.039589 67.017235,117.055367 66.650032,128.567093 
	C64.032272,130.367065 61.714439,131.568314 59.545086,132.995285 
	C54.049500,136.610245 48.620552,140.326492 43.164909,144.002167 
z"/>
<path fill="#726FB0" opacity="1.000000" stroke="none" 
	d="
M179.019135,194.467804 
	C184.145554,190.718475 189.235519,187.431412 194.334091,184.157791 
	C196.946152,182.480682 199.573639,180.827560 202.526443,179.087311 
	C202.886185,188.695312 202.913651,198.379623 202.900696,208.531204 
	C198.149551,211.927704 193.460449,214.892548 188.720139,217.773087 
	C185.779007,219.560303 182.760193,221.219696 179.418045,222.965652 
	C179.035309,213.641769 179.010773,204.288712 179.019135,194.467804 
z"/>
<path fill="#5283C0" opacity="1.000000" stroke="none" 
	d="
M66.990295,191.540070 
	C64.420769,193.412155 61.742340,194.643417 59.314384,196.252594 
	C54.096146,199.711136 49.006958,203.364395 43.515854,206.969223 
	C43.120148,197.309601 43.073524,187.618713 43.418659,177.374313 
	C44.752407,176.172211 45.691837,175.519852 46.636799,174.875610 
	C53.424492,170.247955 60.213299,165.621948 67.001755,160.995422 
	C67.006500,164.033234 67.011246,167.071045 67.013130,170.565689 
	C67.005157,177.705200 67.000046,184.387863 66.990295,191.540070 
z"/>
<path fill="#4B87C4" opacity="1.000000" stroke="none" 
	d="
M67.006813,160.527252 
	C60.213299,165.621948 53.424492,170.247955 46.636799,174.875610 
	C45.691837,175.519852 44.752407,176.172211 43.488060,176.910187 
	C43.118801,166.309509 43.071903,155.619461 43.094959,144.465790 
	C48.620552,140.326492 54.049500,136.610245 59.545086,132.995285 
	C61.714439,131.568314 64.032272,130.367065 66.644844,129.036331 
	C67.008751,139.359451 67.010315,149.709274 67.006813,160.527252 
z"/>
<path fill="#64598F" opacity="1.000000" stroke="none" 
	d="
M43.092056,282.455566 
	C51.065441,282.023712 58.967030,282.038818 67.317657,282.068665 
	C67.814728,285.094879 67.862770,288.106293 67.395020,291.564514 
	C58.974682,292.000244 51.070133,291.989227 43.165581,291.978180 
	C43.117138,288.952972 43.068695,285.927765 43.092056,282.455566 
z"/>
<path fill="#595586" opacity="1.000000" stroke="none" 
	d="
M43.099800,292.419434 
	C51.070133,291.989227 58.974682,292.000244 67.330742,292.014465 
	C67.831161,294.393341 67.880066,296.769073 67.854523,299.585083 
	C59.880322,300.013947 51.980587,300.002502 43.623238,299.987000 
	C43.121758,297.608856 43.077888,295.234741 43.099800,292.419434 
z"/>
</svg>